solid OpenSCAD_Model
  facet normal 0 1 0
    outer loop
      vertex -2.34909 18.5455 5.00727
      vertex 2.34909 18.5455 5.00727
      vertex -2.34909 18.5455 0.309092
    endloop
  endfacet
  facet normal 0 1 0
    outer loop
      vertex -2.34909 18.5455 0.309092
      vertex 2.34909 18.5455 5.00727
      vertex 2.34909 18.5455 0.309092
    endloop
  endfacet
  facet normal 0 0.707107 0.707107
    outer loop
      vertex 2.34909 18.2364 5.31636
      vertex 2.34909 18.5455 5.00727
      vertex -2.34909 18.2364 5.31636
    endloop
  endfacet
  facet normal 0 0.707107 0.707107
    outer loop
      vertex -2.34909 18.2364 5.31636
      vertex 2.34909 18.5455 5.00727
      vertex -2.34909 18.5455 5.00727
    endloop
  endfacet
  facet normal -0.57735 0.57735 0.57735
    outer loop
      vertex -2.65818 18.2364 5.00727
      vertex -2.34909 18.2364 5.31636
      vertex -2.34909 18.5455 5.00727
    endloop
  endfacet
  facet normal -0.707107 0.707107 0
    outer loop
      vertex -2.65818 18.2364 5.00727
      vertex -2.34909 18.5455 5.00727
      vertex -2.65818 18.2364 0.309092
    endloop
  endfacet
  facet normal -0.707107 0.707107 0
    outer loop
      vertex -2.65818 18.2364 0.309092
      vertex -2.34909 18.5455 5.00727
      vertex -2.34909 18.5455 0.309092
    endloop
  endfacet
  facet normal -0.57735 0.57735 -0.57735
    outer loop
      vertex -2.65818 18.2364 0.309092
      vertex -2.34909 18.5455 0.309092
      vertex -2.34909 18.2364 1.23636e-06
    endloop
  endfacet
  facet normal 0 0.707107 -0.707107
    outer loop
      vertex -2.34909 18.5455 0.309092
      vertex 2.34909 18.5455 0.309092
      vertex -2.34909 18.2364 1.23636e-06
    endloop
  endfacet
  facet normal 0 0.707107 -0.707107
    outer loop
      vertex -2.34909 18.2364 1.23636e-06
      vertex 2.34909 18.5455 0.309092
      vertex 2.34909 18.2364 1.23636e-06
    endloop
  endfacet
  facet normal 0.57735 0.57735 -0.57735
    outer loop
      vertex 2.34909 18.2364 1.23636e-06
      vertex 2.34909 18.5455 0.309092
      vertex 2.65818 18.2364 0.309092
    endloop
  endfacet
  facet normal 0.707107 0.707107 0
    outer loop
      vertex 2.34909 18.5455 5.00727
      vertex 2.65818 18.2364 5.00727
      vertex 2.34909 18.5455 0.309092
    endloop
  endfacet
  facet normal 0.707107 0.707107 0
    outer loop
      vertex 2.34909 18.5455 0.309092
      vertex 2.65818 18.2364 5.00727
      vertex 2.65818 18.2364 0.309092
    endloop
  endfacet
  facet normal 0.57735 0.57735 0.57735
    outer loop
      vertex 2.34909 18.2364 5.31636
      vertex 2.65818 18.2364 5.00727
      vertex 2.34909 18.5455 5.00727
    endloop
  endfacet
  facet normal -0.707107 0 0.707107
    outer loop
      vertex -2.34909 -18.2364 5.31636
      vertex -2.34909 18.2364 5.31636
      vertex -2.65818 -18.2364 5.00727
    endloop
  endfacet
  facet normal -0.707107 0 0.707107
    outer loop
      vertex -2.65818 -18.2364 5.00727
      vertex -2.34909 18.2364 5.31636
      vertex -2.65818 18.2364 5.00727
    endloop
  endfacet
  facet normal 0 0 1
    outer loop
      vertex 1.73091 11.4364 5.31636
      vertex 2.34909 -18.2364 5.31636
      vertex 2.34909 18.2364 5.31636
    endloop
  endfacet
  facet normal 0 0 1
    outer loop
      vertex -1.73091 17 5.31636
      vertex 1.73091 17 5.31636
      vertex 2.34909 18.2364 5.31636
    endloop
  endfacet
  facet normal 0 0 1
    outer loop
      vertex -2.34909 18.2364 5.31636
      vertex -2.34909 -18.2364 5.31636
      vertex -1.73091 11.4364 5.31636
    endloop
  endfacet
  facet normal 0 0 1
    outer loop
      vertex -2.34909 18.2364 5.31636
      vertex -1.73091 17 5.31636
      vertex 2.34909 18.2364 5.31636
    endloop
  endfacet
  facet normal 0 0 1
    outer loop
      vertex -2.34909 18.2364 5.31636
      vertex -1.73091 11.4364 5.31636
      vertex -1.73091 17 5.31636
    endloop
  endfacet
  facet normal 0 0 1
    outer loop
      vertex -2.34909 -18.2364 5.31636
      vertex 2.34909 -18.2364 5.31636
      vertex 1.73091 11.4364 5.31636
    endloop
  endfacet
  facet normal 0 0 1
    outer loop
      vertex 1.73091 17 5.31636
      vertex 1.73091 11.4364 5.31636
      vertex 2.34909 18.2364 5.31636
    endloop
  endfacet
  facet normal 0 0 1
    outer loop
      vertex 1.73091 11.4364 5.31636
      vertex -1.73091 11.4364 5.31636
      vertex -2.34909 -18.2364 5.31636
    endloop
  endfacet
  facet normal 0.707107 0 0.707107
    outer loop
      vertex 2.34909 -18.2364 5.31636
      vertex 2.65818 -18.2364 5.00727
      vertex 2.65818 18.2364 5.00727
    endloop
  endfacet
  facet normal 0.707107 0 0.707107
    outer loop
      vertex 2.34909 18.2364 5.31636
      vertex 2.34909 -18.2364 5.31636
      vertex 2.65818 18.2364 5.00727
    endloop
  endfacet
  facet normal -1 0 0
    outer loop
      vertex -2.65818 -18.2364 5.00727
      vertex -2.65818 18.2364 5.00727
      vertex -2.65818 -18.2364 0.309092
    endloop
  endfacet
  facet normal -1 0 0
    outer loop
      vertex -2.65818 -18.2364 0.309092
      vertex -2.65818 18.2364 5.00727
      vertex -2.65818 18.2364 0.309092
    endloop
  endfacet
  facet normal -0.707107 0 -0.707107
    outer loop
      vertex -2.65818 18.2364 0.309092
      vertex -2.34909 18.2364 1.23636e-06
      vertex -2.65818 -18.2364 0.309092
    endloop
  endfacet
  facet normal -0.707107 0 -0.707107
    outer loop
      vertex -2.65818 -18.2364 0.309092
      vertex -2.34909 18.2364 1.23636e-06
      vertex -2.34909 -18.2364 1.23636e-06
    endloop
  endfacet
  facet normal 0 0 -1
    outer loop
      vertex 1.73091 11.4364 1.23636e-06
      vertex 2.34909 18.2364 1.23636e-06
      vertex 2.34909 -18.2364 1.23636e-06
    endloop
  endfacet
  facet normal 0 0 -1
    outer loop
      vertex -2.34909 18.2364 1.23636e-06
      vertex -1.73091 11.4364 1.23636e-06
      vertex -2.34909 -18.2364 1.23636e-06
    endloop
  endfacet
  facet normal 0 0 -1
    outer loop
      vertex -1.73091 17 1.23636e-06
      vertex 2.34909 18.2364 1.23636e-06
      vertex 1.73091 17 1.23636e-06
    endloop
  endfacet
  facet normal 0 0 -1
    outer loop
      vertex -2.34909 -18.2364 1.23636e-06
      vertex 1.73091 11.4364 1.23636e-06
      vertex 2.34909 -18.2364 1.23636e-06
    endloop
  endfacet
  facet normal 0 0 -1
    outer loop
      vertex -2.34909 18.2364 1.23636e-06
      vertex 2.34909 18.2364 1.23636e-06
      vertex -1.73091 17 1.23636e-06
    endloop
  endfacet
  facet normal 0 0 -1
    outer loop
      vertex -2.34909 18.2364 1.23636e-06
      vertex -1.73091 17 1.23636e-06
      vertex -1.73091 11.4364 1.23636e-06
    endloop
  endfacet
  facet normal 0 0 -1
    outer loop
      vertex 1.73091 11.4364 1.23636e-06
      vertex -2.34909 -18.2364 1.23636e-06
      vertex -1.73091 11.4364 1.23636e-06
    endloop
  endfacet
  facet normal 0 0 -1
    outer loop
      vertex 1.73091 17 1.23636e-06
      vertex 2.34909 18.2364 1.23636e-06
      vertex 1.73091 11.4364 1.23636e-06
    endloop
  endfacet
  facet normal 0.707107 0 -0.707107
    outer loop
      vertex 2.34909 18.2364 1.23636e-06
      vertex 2.65818 18.2364 0.309092
      vertex 2.34909 -18.2364 1.23636e-06
    endloop
  endfacet
  facet normal 0.707107 0 -0.707107
    outer loop
      vertex 2.34909 -18.2364 1.23636e-06
      vertex 2.65818 18.2364 0.309092
      vertex 2.65818 -18.2364 0.309092
    endloop
  endfacet
  facet normal 1 0 0
    outer loop
      vertex 2.65818 -18.2364 0.309092
      vertex 2.65818 18.2364 0.309092
      vertex 2.65818 18.2364 5.00727
    endloop
  endfacet
  facet normal 1 0 0
    outer loop
      vertex 2.65818 -18.2364 5.00727
      vertex 2.65818 -18.2364 0.309092
      vertex 2.65818 18.2364 5.00727
    endloop
  endfacet
  facet normal -0.57735 -0.57735 0.57735
    outer loop
      vertex -2.65818 -18.2364 5.00727
      vertex -2.34909 -18.5455 5.00727
      vertex -2.34909 -18.2364 5.31636
    endloop
  endfacet
  facet normal -0.707107 -0.707107 0
    outer loop
      vertex -2.65818 -18.2364 0.309092
      vertex -2.34909 -18.5455 0.309092
      vertex -2.34909 -18.5455 5.00727
    endloop
  endfacet
  facet normal -0.707107 -0.707107 0
    outer loop
      vertex -2.65818 -18.2364 5.00727
      vertex -2.65818 -18.2364 0.309092
      vertex -2.34909 -18.5455 5.00727
    endloop
  endfacet
  facet normal 0 -0.707107 0.707107
    outer loop
      vertex -2.34909 -18.5455 5.00727
      vertex 2.34909 -18.5455 5.00727
      vertex 2.34909 -18.2364 5.31636
    endloop
  endfacet
  facet normal 0 -0.707107 0.707107
    outer loop
      vertex -2.34909 -18.2364 5.31636
      vertex -2.34909 -18.5455 5.00727
      vertex 2.34909 -18.2364 5.31636
    endloop
  endfacet
  facet normal 0.57735 -0.57735 0.57735
    outer loop
      vertex 2.34909 -18.5455 5.00727
      vertex 2.65818 -18.2364 5.00727
      vertex 2.34909 -18.2364 5.31636
    endloop
  endfacet
  facet normal 0.707107 0 0.707107
    outer loop
      vertex -1.73091 11.4364 5.31636
      vertex -1.42182 11.7455 5.00727
      vertex -1.42182 16.6909 5.00727
    endloop
  endfacet
  facet normal 0.707107 0 0.707107
    outer loop
      vertex -1.73091 17 5.31636
      vertex -1.73091 11.4364 5.31636
      vertex -1.42182 16.6909 5.00727
    endloop
  endfacet
  facet normal 0 0.707107 0.707107
    outer loop
      vertex 1.73091 11.4364 5.31636
      vertex 1.42182 11.7455 5.00727
      vertex -1.73091 11.4364 5.31636
    endloop
  endfacet
  facet normal 0 0.707107 0.707107
    outer loop
      vertex -1.73091 11.4364 5.31636
      vertex 1.42182 11.7455 5.00727
      vertex -1.42182 11.7455 5.00727
    endloop
  endfacet
  facet normal -0.707108 0 0.707105
    outer loop
      vertex 1.73091 11.4364 5.31636
      vertex 1.73091 17 5.31636
      vertex 1.42182 11.7455 5.00727
    endloop
  endfacet
  facet normal -0.707108 0 0.707105
    outer loop
      vertex 1.42182 11.7455 5.00727
      vertex 1.73091 17 5.31636
      vertex 1.42182 16.6909 5.00727
    endloop
  endfacet
  facet normal 0 -0.707107 0.707107
    outer loop
      vertex -1.73091 17 5.31636
      vertex -1.42182 16.6909 5.00727
      vertex 1.42182 16.6909 5.00727
    endloop
  endfacet
  facet normal 0 -0.707107 0.707107
    outer loop
      vertex 1.73091 17 5.31636
      vertex -1.73091 17 5.31636
      vertex 1.42182 16.6909 5.00727
    endloop
  endfacet
  facet normal 0.707107 -0.707107 0
    outer loop
      vertex 2.34909 -18.5455 0.309092
      vertex 2.65818 -18.2364 0.309092
      vertex 2.65818 -18.2364 5.00727
    endloop
  endfacet
  facet normal 0.707107 -0.707107 0
    outer loop
      vertex 2.34909 -18.5455 5.00727
      vertex 2.34909 -18.5455 0.309092
      vertex 2.65818 -18.2364 5.00727
    endloop
  endfacet
  facet normal -0.57735 -0.57735 -0.57735
    outer loop
      vertex -2.65818 -18.2364 0.309092
      vertex -2.34909 -18.2364 1.23636e-06
      vertex -2.34909 -18.5455 0.309092
    endloop
  endfacet
  facet normal 0 -0.707107 -0.707107
    outer loop
      vertex -2.34909 -18.2364 1.23636e-06
      vertex 2.34909 -18.2364 1.23636e-06
      vertex -2.34909 -18.5455 0.309092
    endloop
  endfacet
  facet normal 0 -0.707107 -0.707107
    outer loop
      vertex -2.34909 -18.5455 0.309092
      vertex 2.34909 -18.2364 1.23636e-06
      vertex 2.34909 -18.5455 0.309092
    endloop
  endfacet
  facet normal 0.57735 -0.57735 -0.57735
    outer loop
      vertex 2.34909 -18.5455 0.309092
      vertex 2.34909 -18.2364 1.23636e-06
      vertex 2.65818 -18.2364 0.309092
    endloop
  endfacet
  facet normal 0 0.707107 -0.707107
    outer loop
      vertex -1.42182 11.7455 0.309092
      vertex 1.42182 11.7455 0.309092
      vertex -1.73091 11.4364 1.23636e-06
    endloop
  endfacet
  facet normal 0 0.707107 -0.707107
    outer loop
      vertex -1.73091 11.4364 1.23636e-06
      vertex 1.42182 11.7455 0.309092
      vertex 1.73091 11.4364 1.23636e-06
    endloop
  endfacet
  facet normal 0.707107 0 -0.707107
    outer loop
      vertex -1.73091 17 1.23636e-06
      vertex -1.42182 16.6909 0.309092
      vertex -1.73091 11.4364 1.23636e-06
    endloop
  endfacet
  facet normal 0.707107 0 -0.707107
    outer loop
      vertex -1.73091 11.4364 1.23636e-06
      vertex -1.42182 16.6909 0.309092
      vertex -1.42182 11.7455 0.309092
    endloop
  endfacet
  facet normal 0 -0.707107 -0.707107
    outer loop
      vertex 1.73091 17 1.23636e-06
      vertex 1.42182 16.6909 0.309092
      vertex -1.73091 17 1.23636e-06
    endloop
  endfacet
  facet normal 0 -0.707107 -0.707107
    outer loop
      vertex -1.73091 17 1.23636e-06
      vertex 1.42182 16.6909 0.309092
      vertex -1.42182 16.6909 0.309092
    endloop
  endfacet
  facet normal -0.707107 0 -0.707107
    outer loop
      vertex 1.42182 16.6909 0.309092
      vertex 1.73091 17 1.23636e-06
      vertex 1.42182 11.7455 0.309092
    endloop
  endfacet
  facet normal -0.707107 0 -0.707107
    outer loop
      vertex 1.42182 11.7455 0.309092
      vertex 1.73091 17 1.23636e-06
      vertex 1.73091 11.4364 1.23636e-06
    endloop
  endfacet
  facet normal 0 -1 0
    outer loop
      vertex 1.83171 -18.5455 2.9483
      vertex 2.34909 -18.5455 0.309092
      vertex 2.34909 -18.5455 5.00727
    endloop
  endfacet
  facet normal 0 -1 0
    outer loop
      vertex 1.85455 -18.5455 2.65818
      vertex 1.83171 -18.5455 2.36807
      vertex 2.34909 -18.5455 0.309092
    endloop
  endfacet
  facet normal 0 -1 0
    outer loop
      vertex -2.34909 -18.5455 5.00727
      vertex -2.34909 -18.5455 0.309092
      vertex -1.85454 -18.5455 2.65818
    endloop
  endfacet
  facet normal 0 -1 0
    outer loop
      vertex 1.31136 -18.5455 3.96954
      vertex 1.50036 -18.5455 3.74826
      vertex 2.34909 -18.5455 5.00727
    endloop
  endfacet
  facet normal 0 -1 0
    outer loop
      vertex -2.34909 -18.5455 5.00727
      vertex -1.85454 -18.5455 2.65818
      vertex -1.83171 -18.5455 2.9483
    endloop
  endfacet
  facet normal 0 -1 0
    outer loop
      vertex -2.34909 -18.5455 5.00727
      vertex -1.83171 -18.5455 2.9483
      vertex -1.76378 -18.5455 3.23127
    endloop
  endfacet
  facet normal 0 -1 0
    outer loop
      vertex 0.841945 -18.5455 4.31059
      vertex 1.09008 -18.5455 4.15854
      vertex 2.34909 -18.5455 5.00727
    endloop
  endfacet
  facet normal 0 -1 0
    outer loop
      vertex -2.34909 -18.5455 5.00727
      vertex -1.76378 -18.5455 3.23127
      vertex -1.65241 -18.5455 3.50013
    endloop
  endfacet
  facet normal 0 -1 0
    outer loop
      vertex -2.34909 -18.5455 5.00727
      vertex -1.65241 -18.5455 3.50013
      vertex -1.50036 -18.5455 3.74826
    endloop
  endfacet
  facet normal 0 -1 0
    outer loop
      vertex 0.573085 -18.5455 4.42196
      vertex 0.841945 -18.5455 4.31059
      vertex 2.34909 -18.5455 5.00727
    endloop
  endfacet
  facet normal 0 -1 0
    outer loop
      vertex -2.34909 -18.5455 5.00727
      vertex -1.50036 -18.5455 3.74826
      vertex -1.31136 -18.5455 3.96954
    endloop
  endfacet
  facet normal 0 -1 0
    outer loop
      vertex -2.34909 -18.5455 5.00727
      vertex -1.31136 -18.5455 3.96954
      vertex -1.09008 -18.5455 4.15854
    endloop
  endfacet
  facet normal 0 -1 0
    outer loop
      vertex 0.290116 -18.5455 4.48989
      vertex 0.573085 -18.5455 4.42196
      vertex 2.34909 -18.5455 5.00727
    endloop
  endfacet
  facet normal 0 -1 0
    outer loop
      vertex -2.34909 -18.5455 5.00727
      vertex -1.09008 -18.5455 4.15854
      vertex -0.841945 -18.5455 4.31059
    endloop
  endfacet
  facet normal 0 -1 0
    outer loop
      vertex -2.34909 -18.5455 5.00727
      vertex -0.841945 -18.5455 4.31059
      vertex -0.573085 -18.5455 4.42196
    endloop
  endfacet
  facet normal 0 -1 0
    outer loop
      vertex -2.34909 -18.5455 5.00727
      vertex -0.290114 -18.5455 4.48989
      vertex 2.34909 -18.5455 5.00727
    endloop
  endfacet
  facet normal 0 -1 0
    outer loop
      vertex -2.34909 -18.5455 5.00727
      vertex -0.573085 -18.5455 4.42196
      vertex -0.290114 -18.5455 4.48989
    endloop
  endfacet
  facet normal 0 -1 0
    outer loop
      vertex 1.09008 -18.5455 4.15854
      vertex 1.31136 -18.5455 3.96954
      vertex 2.34909 -18.5455 5.00727
    endloop
  endfacet
  facet normal 0 -1 0
    outer loop
      vertex 1.50036 -18.5455 3.74826
      vertex 1.65241 -18.5455 3.50013
      vertex 2.34909 -18.5455 5.00727
    endloop
  endfacet
  facet normal 0 -1 0
    outer loop
      vertex 0.290116 -18.5455 0.82647
      vertex 1.23636e-06 -18.5455 0.803638
      vertex -2.34909 -18.5455 0.309092
    endloop
  endfacet
  facet normal 0 -1 0
    outer loop
      vertex 1.65241 -18.5455 3.50013
      vertex 1.76378 -18.5455 3.23127
      vertex 2.34909 -18.5455 5.00727
    endloop
  endfacet
  facet normal 0 -1 0
    outer loop
      vertex 1.76378 -18.5455 3.23127
      vertex 1.83171 -18.5455 2.9483
      vertex 2.34909 -18.5455 5.00727
    endloop
  endfacet
  facet normal 0 -1 0
    outer loop
      vertex 1.23636e-06 -18.5455 0.803638
      vertex -0.290113 -18.5455 0.82647
      vertex -2.34909 -18.5455 0.309092
    endloop
  endfacet
  facet normal 0 -1 0
    outer loop
      vertex 1.76378 -18.5455 2.0851
      vertex 2.34909 -18.5455 0.309092
      vertex 1.83171 -18.5455 2.36807
    endloop
  endfacet
  facet normal 0 -1 0
    outer loop
      vertex 1.65241 -18.5455 1.81624
      vertex 2.34909 -18.5455 0.309092
      vertex 1.76378 -18.5455 2.0851
    endloop
  endfacet
  facet normal 0 -1 0
    outer loop
      vertex -0.841945 -18.5455 1.00577
      vertex -1.09007 -18.5455 1.15782
      vertex -2.34909 -18.5455 0.309092
    endloop
  endfacet
  facet normal 0 -1 0
    outer loop
      vertex 1.50036 -18.5455 1.56811
      vertex 2.34909 -18.5455 0.309092
      vertex 1.65241 -18.5455 1.81624
    endloop
  endfacet
  facet normal 0 -1 0
    outer loop
      vertex 1.31136 -18.5455 1.34682
      vertex 2.34909 -18.5455 0.309092
      vertex 1.50036 -18.5455 1.56811
    endloop
  endfacet
  facet normal 0 -1 0
    outer loop
      vertex 1.09008 -18.5455 1.15782
      vertex 2.34909 -18.5455 0.309092
      vertex 1.31136 -18.5455 1.34682
    endloop
  endfacet
  facet normal 0 -1 0
    outer loop
      vertex 0.841945 -18.5455 1.00577
      vertex 2.34909 -18.5455 0.309092
      vertex 1.09008 -18.5455 1.15782
    endloop
  endfacet
  facet normal 0 -1 0
    outer loop
      vertex 0.573085 -18.5455 0.894404
      vertex 2.34909 -18.5455 0.309092
      vertex 0.841945 -18.5455 1.00577
    endloop
  endfacet
  facet normal 0 -1 0
    outer loop
      vertex 0.290116 -18.5455 0.82647
      vertex 2.34909 -18.5455 0.309092
      vertex 0.573085 -18.5455 0.894404
    endloop
  endfacet
  facet normal 0 -1 0
    outer loop
      vertex -2.34909 -18.5455 0.309092
      vertex 2.34909 -18.5455 0.309092
      vertex 0.290116 -18.5455 0.82647
    endloop
  endfacet
  facet normal 0 -1 0
    outer loop
      vertex -0.290113 -18.5455 0.82647
      vertex -0.573085 -18.5455 0.894404
      vertex -2.34909 -18.5455 0.309092
    endloop
  endfacet
  facet normal 0 -1 0
    outer loop
      vertex -0.573085 -18.5455 0.894404
      vertex -0.841945 -18.5455 1.00577
      vertex -2.34909 -18.5455 0.309092
    endloop
  endfacet
  facet normal 0 -1 0
    outer loop
      vertex -1.31136 -18.5455 1.34682
      vertex -1.50036 -18.5455 1.56811
      vertex -2.34909 -18.5455 0.309092
    endloop
  endfacet
  facet normal 0 -1 0
    outer loop
      vertex -1.09007 -18.5455 1.15782
      vertex -1.31136 -18.5455 1.34682
      vertex -2.34909 -18.5455 0.309092
    endloop
  endfacet
  facet normal 0 -1 0
    outer loop
      vertex 1.83171 -18.5455 2.9483
      vertex 1.85455 -18.5455 2.65818
      vertex 2.34909 -18.5455 0.309092
    endloop
  endfacet
  facet normal 0 -1 0
    outer loop
      vertex -1.65241 -18.5455 1.81624
      vertex -2.34909 -18.5455 0.309092
      vertex -1.50036 -18.5455 1.56811
    endloop
  endfacet
  facet normal 0 -1 0
    outer loop
      vertex -1.76378 -18.5455 2.0851
      vertex -2.34909 -18.5455 0.309092
      vertex -1.65241 -18.5455 1.81624
    endloop
  endfacet
  facet normal 0 -1 0
    outer loop
      vertex -1.83171 -18.5455 2.36807
      vertex -2.34909 -18.5455 0.309092
      vertex -1.76378 -18.5455 2.0851
    endloop
  endfacet
  facet normal 0 -1 0
    outer loop
      vertex -1.85454 -18.5455 2.65818
      vertex -2.34909 -18.5455 0.309092
      vertex -1.83171 -18.5455 2.36807
    endloop
  endfacet
  facet normal 0 -1 0
    outer loop
      vertex -0.290114 -18.5455 4.48989
      vertex 1.23636e-06 -18.5455 4.51273
      vertex 2.34909 -18.5455 5.00727
    endloop
  endfacet
  facet normal 0 -1 0
    outer loop
      vertex 1.23636e-06 -18.5455 4.51273
      vertex 0.290116 -18.5455 4.48989
      vertex 2.34909 -18.5455 5.00727
    endloop
  endfacet
  facet normal 1 0 2.63158e-07
    outer loop
      vertex -1.42182 11.7455 5.00727
      vertex -1.42182 11.7455 0.309092
      vertex -1.42182 16.6909 0.309092
    endloop
  endfacet
  facet normal 1 0 2.63158e-07
    outer loop
      vertex -1.42182 16.6909 5.00727
      vertex -1.42182 11.7455 5.00727
      vertex -1.42182 16.6909 0.309092
    endloop
  endfacet
  facet normal 0 -1 0
    outer loop
      vertex -1.42182 16.6909 5.00727
      vertex -1.42182 16.6909 0.309092
      vertex 1.42182 16.6909 0.309092
    endloop
  endfacet
  facet normal 0 -1 0
    outer loop
      vertex 1.42182 16.6909 5.00727
      vertex -1.42182 16.6909 5.00727
      vertex 1.42182 16.6909 0.309092
    endloop
  endfacet
  facet normal 0 1 0
    outer loop
      vertex 1.42182 11.7455 5.00727
      vertex 1.42182 11.7455 0.309092
      vertex -1.42182 11.7455 5.00727
    endloop
  endfacet
  facet normal 0 1 0
    outer loop
      vertex -1.42182 11.7455 5.00727
      vertex 1.42182 11.7455 0.309092
      vertex -1.42182 11.7455 0.309092
    endloop
  endfacet
  facet normal -1 0 0
    outer loop
      vertex 1.42182 11.7455 5.00727
      vertex 1.42182 16.6909 5.00727
      vertex 1.42182 11.7455 0.309092
    endloop
  endfacet
  facet normal -1 0 0
    outer loop
      vertex 1.42182 11.7455 0.309092
      vertex 1.42182 16.6909 5.00727
      vertex 1.42182 16.6909 0.309092
    endloop
  endfacet
  facet normal 0.996917 0.00100452 0.0784572
    outer loop
      vertex -1.85454 -18.5455 2.65818
      vertex -1.83171 -18.5455 2.36807
      vertex -1.84853 -12.8582 2.50895
    endloop
  endfacet
  facet normal 0.996917 0.00100451 -0.0784569
    outer loop
      vertex -1.85454 -18.5455 2.65818
      vertex -1.84853 -12.8582 2.80741
      vertex -1.83171 -18.5455 2.9483
    endloop
  endfacet
  facet normal 0.999999 -0.00105739 0
    outer loop
      vertex -1.85454 -18.5455 2.65818
      vertex -1.84853 -12.8582 2.50895
      vertex -1.84853 -12.8582 2.80741
    endloop
  endfacet
  facet normal 0.97237 0.000999141 0.233442
    outer loop
      vertex -1.83171 -18.5455 2.36807
      vertex -1.76378 -18.5455 2.0851
      vertex -1.80065 -12.8582 2.21436
    endloop
  endfacet
  facet normal 0.98705 -0.00105481 0.160411
    outer loop
      vertex -1.84853 -12.8582 2.50895
      vertex -1.83171 -18.5455 2.36807
      vertex -1.80065 -12.8582 2.21436
    endloop
  endfacet
  facet normal 0.923877 0.0009887 0.382687
    outer loop
      vertex -1.76378 -18.5455 2.0851
      vertex -1.65241 -18.5455 1.81624
      vertex -1.70614 -12.8582 1.93126
    endloop
  endfacet
  facet normal 0.948536 -0.00104698 0.316666
    outer loop
      vertex -1.80065 -12.8582 2.21436
      vertex -1.76378 -18.5455 2.0851
      vertex -1.70614 -12.8582 1.93126
    endloop
  endfacet
  facet normal 0.85264 0.000972917 0.522498
    outer loop
      vertex -1.65241 -18.5455 1.81624
      vertex -1.50036 -18.5455 1.56811
      vertex -1.56744 -12.8582 1.66699
    endloop
  endfacet
  facet normal 0.885456 -0.00103348 0.464723
    outer loop
      vertex -1.70614 -12.8582 1.93126
      vertex -1.65241 -18.5455 1.81624
      vertex -1.56744 -12.8582 1.66699
    endloop
  endfacet
  facet normal 0.760408 0.000951587 0.649445
    outer loop
      vertex -1.50036 -18.5455 1.56811
      vertex -1.31136 -18.5455 1.34682
      vertex -1.38815 -12.8582 1.42839
    endloop
  endfacet
  facet normal 0.799441 -0.00101503 0.600743
    outer loop
      vertex -1.56744 -12.8582 1.66699
      vertex -1.50036 -18.5455 1.56811
      vertex -1.38815 -12.8582 1.42839
    endloop
  endfacet
  facet normal 0.649448 0.000925189 0.760406
    outer loop
      vertex -1.31136 -18.5455 1.34682
      vertex -1.09007 -18.5455 1.15782
      vertex -1.1729 -12.8582 1.22164
    endloop
  endfacet
  facet normal 0.692725 -0.00099136 0.721201
    outer loop
      vertex -1.38815 -12.8582 1.42839
      vertex -1.31136 -18.5455 1.34682
      vertex -1.1729 -12.8582 1.22164
    endloop
  endfacet
  facet normal 0.522496 0.000893337 0.852641
    outer loop
      vertex -1.09007 -18.5455 1.15782
      vertex -0.841945 -18.5455 1.00577
      vertex -0.927271 -12.8582 1.0521
    endloop
  endfacet
  facet normal 0.568061 -0.000962283 0.822986
    outer loop
      vertex -1.1729 -12.8582 1.22164
      vertex -1.09007 -18.5455 1.15782
      vertex -0.927271 -12.8582 1.0521
    endloop
  endfacet
  facet normal 0.382687 0.000856215 0.923878
    outer loop
      vertex -0.841945 -18.5455 1.00577
      vertex -0.573085 -18.5455 0.894404
      vertex -0.65763 -12.8582 0.924153
    endloop
  endfacet
  facet normal 0.428693 -0.000927889 0.90345
    outer loop
      vertex -0.927271 -12.8582 1.0521
      vertex -0.841945 -18.5455 1.00577
      vertex -0.65763 -12.8582 0.924153
    endloop
  endfacet
  facet normal 0.233441 0.000814039 0.972371
    outer loop
      vertex -0.573085 -18.5455 0.894404
      vertex -0.290113 -18.5455 0.82647
      vertex -0.370956 -12.8582 0.841117
    endloop
  endfacet
  facet normal 0.278219 -0.000888441 0.960517
    outer loop
      vertex -0.65763 -12.8582 0.924153
      vertex -0.573085 -18.5455 0.894404
      vertex -0.370956 -12.8582 0.841117
    endloop
  endfacet
  facet normal 0.0784572 0.000766645 0.996917
    outer loop
      vertex -0.290113 -18.5455 0.82647
      vertex 1.23636e-06 -18.5455 0.803638
      vertex -0.0746751 -12.8582 0.805141
    endloop
  endfacet
  facet normal 0.120539 -0.000843221 0.992708
    outer loop
      vertex -0.370956 -12.8582 0.841117
      vertex -0.290113 -18.5455 0.82647
      vertex -0.0746751 -12.8582 0.805141
    endloop
  endfacet
  facet normal -0.0784569 0.000713687 0.996917
    outer loop
      vertex 1.23636e-06 -18.5455 0.803638
      vertex 0.290116 -18.5455 0.82647
      vertex 0.223539 -12.8582 0.817158
    endloop
  endfacet
  facet normal -0.0402653 -0.000792835 0.999189
    outer loop
      vertex -0.0746751 -12.8582 0.805141
      vertex 1.23636e-06 -18.5455 0.803638
      vertex 0.223539 -12.8582 0.817158
    endloop
  endfacet
  facet normal -0.233444 0.000655273 0.97237
    outer loop
      vertex 0.290116 -18.5455 0.82647
      vertex 0.573085 -18.5455 0.894404
      vertex 0.515968 -12.8582 0.876859
    endloop
  endfacet
  facet normal -0.200028 -0.000737497 0.97979
    outer loop
      vertex 0.223539 -12.8582 0.817158
      vertex 0.290116 -18.5455 0.82647
      vertex 0.515968 -12.8582 0.876859
    endloop
  endfacet
  facet normal -0.382687 0.000592097 0.923878
    outer loop
      vertex 0.573085 -18.5455 0.894404
      vertex 0.841945 -18.5455 1.00577
      vertex 0.79503 -12.8582 0.982693
    endloop
  endfacet
  facet normal -0.354604 -0.000676776 0.935016
    outer loop
      vertex 0.515968 -12.8582 0.876859
      vertex 0.573085 -18.5455 0.894404
      vertex 0.79503 -12.8582 0.982693
    endloop
  endfacet
  facet normal -0.522494 0.000523255 0.852643
    outer loop
      vertex 0.841945 -18.5455 1.00577
      vertex 1.09008 -18.5455 1.15782
      vertex 1.0535 -12.8582 1.13192
    endloop
  endfacet
  facet normal -0.499999 -0.000610376 0.866026
    outer loop
      vertex 0.79503 -12.8582 0.982693
      vertex 0.841945 -18.5455 1.00577
      vertex 1.0535 -12.8582 1.13192
    endloop
  endfacet
  facet normal -0.64945 0.000449129 0.760404
    outer loop
      vertex 1.09008 -18.5455 1.15782
      vertex 1.31136 -18.5455 1.34682
      vertex 1.28469 -12.8582 1.32068
    endloop
  endfacet
  facet normal -0.632448 -0.000539242 0.774603
    outer loop
      vertex 1.0535 -12.8582 1.13192
      vertex 1.09008 -18.5455 1.15782
      vertex 1.28469 -12.8582 1.32068
    endloop
  endfacet
  facet normal -0.760408 0.000370089 0.649446
    outer loop
      vertex 1.31136 -18.5455 1.34682
      vertex 1.50036 -18.5455 1.56811
      vertex 1.4826 -12.8582 1.54408
    endloop
  endfacet
  facet normal -0.748509 -0.000462589 0.663124
    outer loop
      vertex 1.28469 -12.8582 1.32068
      vertex 1.31136 -18.5455 1.34682
      vertex 1.4826 -12.8582 1.54408
    endloop
  endfacet
  facet normal -0.852637 0.000285378 0.522504
    outer loop
      vertex 1.50036 -18.5455 1.56811
      vertex 1.65241 -18.5455 1.81624
      vertex 1.64212 -12.8582 1.79633
    endloop
  endfacet
  facet normal -0.845188 -0.000380396 0.534468
    outer loop
      vertex 1.4826 -12.8582 1.54408
      vertex 1.50036 -18.5455 1.56811
      vertex 1.64212 -12.8582 1.79633
    endloop
  endfacet
  facet normal -0.923881 0.000195598 0.38268
    outer loop
      vertex 1.65241 -18.5455 1.81624
      vertex 1.76378 -18.5455 2.0851
      vertex 1.7591 -12.8582 2.07091
    endloop
  endfacet
  facet normal -0.91998 -0.000293369 0.391966
    outer loop
      vertex 1.64212 -12.8582 1.79633
      vertex 1.65241 -18.5455 1.81624
      vertex 1.7591 -12.8582 2.07091
    endloop
  endfacet
  facet normal -0.972371 0.000100418 0.233442
    outer loop
      vertex 1.76378 -18.5455 2.0851
      vertex 1.83171 -18.5455 2.36807
      vertex 1.83053 -12.8582 2.36069
    endloop
  endfacet
  facet normal -0.970943 -0.000200779 0.239312
    outer loop
      vertex 1.7591 -12.8582 2.07091
      vertex 1.76378 -18.5455 2.0851
      vertex 1.83053 -12.8582 2.36069
    endloop
  endfacet
  facet normal -0.996757 -0.000103017 0.0804723
    outer loop
      vertex 1.83053 -12.8582 2.36069
      vertex 1.83171 -18.5455 2.36807
      vertex 1.85455 -12.8582 2.65818
    endloop
  endfacet
  facet normal -0.996917 0 0.0784654
    outer loop
      vertex 1.83171 -18.5455 2.36807
      vertex 1.85455 -18.5455 2.65818
      vertex 1.85455 -12.8582 2.65818
    endloop
  endfacet
  facet normal -0.996917 0 -0.0784657
    outer loop
      vertex 1.83171 -18.5455 2.9483
      vertex 1.85455 -12.8582 2.65818
      vertex 1.85455 -18.5455 2.65818
    endloop
  endfacet
  facet normal -0.972371 0.000100418 -0.233442
    outer loop
      vertex 1.76378 -18.5455 3.23127
      vertex 1.83053 -12.8582 2.95567
      vertex 1.83171 -18.5455 2.9483
    endloop
  endfacet
  facet normal -0.996757 -0.000103017 -0.0804726
    outer loop
      vertex 1.83053 -12.8582 2.95567
      vertex 1.85455 -12.8582 2.65818
      vertex 1.83171 -18.5455 2.9483
    endloop
  endfacet
  facet normal -0.923881 0.000195598 -0.38268
    outer loop
      vertex 1.65241 -18.5455 3.50013
      vertex 1.7591 -12.8582 3.24546
      vertex 1.76378 -18.5455 3.23127
    endloop
  endfacet
  facet normal -0.970943 -0.000200779 -0.239312
    outer loop
      vertex 1.7591 -12.8582 3.24546
      vertex 1.83053 -12.8582 2.95567
      vertex 1.76378 -18.5455 3.23127
    endloop
  endfacet
  facet normal -0.852637 0.000285378 -0.522504
    outer loop
      vertex 1.50036 -18.5455 3.74826
      vertex 1.64212 -12.8582 3.52003
      vertex 1.65241 -18.5455 3.50013
    endloop
  endfacet
  facet normal -0.91998 -0.000293369 -0.391966
    outer loop
      vertex 1.64212 -12.8582 3.52003
      vertex 1.7591 -12.8582 3.24546
      vertex 1.65241 -18.5455 3.50013
    endloop
  endfacet
  facet normal -0.760408 0.000370089 -0.649446
    outer loop
      vertex 1.31136 -18.5455 3.96954
      vertex 1.4826 -12.8582 3.77229
      vertex 1.50036 -18.5455 3.74826
    endloop
  endfacet
  facet normal -0.845188 -0.000380396 -0.534468
    outer loop
      vertex 1.4826 -12.8582 3.77229
      vertex 1.64212 -12.8582 3.52003
      vertex 1.50036 -18.5455 3.74826
    endloop
  endfacet
  facet normal -0.64945 0.000449129 -0.760404
    outer loop
      vertex 1.09008 -18.5455 4.15854
      vertex 1.28469 -12.8582 3.99568
      vertex 1.31136 -18.5455 3.96954
    endloop
  endfacet
  facet normal -0.748509 -0.000462589 -0.663124
    outer loop
      vertex 1.28469 -12.8582 3.99568
      vertex 1.4826 -12.8582 3.77229
      vertex 1.31136 -18.5455 3.96954
    endloop
  endfacet
  facet normal -0.522494 0.00052344 -0.852643
    outer loop
      vertex 0.841945 -18.5455 4.31059
      vertex 1.0535 -12.8582 4.18444
      vertex 1.09008 -18.5455 4.15854
    endloop
  endfacet
  facet normal -0.63245 -0.000539099 -0.774601
    outer loop
      vertex 1.0535 -12.8582 4.18444
      vertex 1.28469 -12.8582 3.99568
      vertex 1.09008 -18.5455 4.15854
    endloop
  endfacet
  facet normal -0.382687 0.000592097 -0.923878
    outer loop
      vertex 0.573085 -18.5455 4.42196
      vertex 0.79503 -12.8582 4.33367
      vertex 0.841945 -18.5455 4.31059
    endloop
  endfacet
  facet normal -0.499996 -0.000610343 -0.866028
    outer loop
      vertex 0.79503 -12.8582 4.33367
      vertex 1.0535 -12.8582 4.18444
      vertex 0.841945 -18.5455 4.31059
    endloop
  endfacet
  facet normal -0.23344 0.000655316 -0.972371
    outer loop
      vertex 0.290116 -18.5455 4.48989
      vertex 0.515968 -12.8582 4.43951
      vertex 0.573085 -18.5455 4.42196
    endloop
  endfacet
  facet normal -0.354604 -0.000676776 -0.935016
    outer loop
      vertex 0.515968 -12.8582 4.43951
      vertex 0.79503 -12.8582 4.33367
      vertex 0.573085 -18.5455 4.42196
    endloop
  endfacet
  facet normal -0.0784611 0.000713854 -0.996917
    outer loop
      vertex 1.23636e-06 -18.5455 4.51273
      vertex 0.223539 -12.8582 4.49921
      vertex 0.290116 -18.5455 4.48989
    endloop
  endfacet
  facet normal -0.200028 -0.000737284 -0.97979
    outer loop
      vertex 0.223539 -12.8582 4.49921
      vertex 0.515968 -12.8582 4.43951
      vertex 0.290116 -18.5455 4.48989
    endloop
  endfacet
  facet normal 0.0784611 0.00076648 -0.996917
    outer loop
      vertex -0.290114 -18.5455 4.48989
      vertex -0.0746751 -12.8582 4.51122
      vertex 1.23636e-06 -18.5455 4.51273
    endloop
  endfacet
  facet normal -0.0402612 -0.000792998 -0.999189
    outer loop
      vertex -0.0746751 -12.8582 4.51122
      vertex 0.223539 -12.8582 4.49921
      vertex 1.23636e-06 -18.5455 4.51273
    endloop
  endfacet
  facet normal 0.233438 0.000814154 -0.972371
    outer loop
      vertex -0.573085 -18.5455 4.42196
      vertex -0.370956 -12.8582 4.47525
      vertex -0.290114 -18.5455 4.48989
    endloop
  endfacet
  facet normal 0.120535 -0.000843091 -0.992709
    outer loop
      vertex -0.370956 -12.8582 4.47525
      vertex -0.0746751 -12.8582 4.51122
      vertex -0.290114 -18.5455 4.48989
    endloop
  endfacet
  facet normal 0.382687 0.000856215 -0.923878
    outer loop
      vertex -0.841945 -18.5455 4.31059
      vertex -0.65763 -12.8582 4.39221
      vertex -0.573085 -18.5455 4.42196
    endloop
  endfacet
  facet normal 0.278219 -0.000888441 -0.960517
    outer loop
      vertex -0.65763 -12.8582 4.39221
      vertex -0.370956 -12.8582 4.47525
      vertex -0.573085 -18.5455 4.42196
    endloop
  endfacet
  facet normal 0.522494 0.000893299 -0.852643
    outer loop
      vertex -1.09008 -18.5455 4.15854
      vertex -0.927271 -12.8582 4.26427
      vertex -0.841945 -18.5455 4.31059
    endloop
  endfacet
  facet normal 0.428693 -0.000927889 -0.90345
    outer loop
      vertex -0.927271 -12.8582 4.26427
      vertex -0.65763 -12.8582 4.39221
      vertex -0.841945 -18.5455 4.31059
    endloop
  endfacet
  facet normal 0.64945 0.000925099 -0.760404
    outer loop
      vertex -1.31136 -18.5455 3.96954
      vertex -1.1729 -12.8582 4.09472
      vertex -1.09008 -18.5455 4.15854
    endloop
  endfacet
  facet normal 0.568061 -0.000962406 -0.822986
    outer loop
      vertex -1.1729 -12.8582 4.09472
      vertex -0.927271 -12.8582 4.26427
      vertex -1.09008 -18.5455 4.15854
    endloop
  endfacet
  facet normal 0.760408 0.000951587 -0.649445
    outer loop
      vertex -1.50036 -18.5455 3.74826
      vertex -1.38815 -12.8582 3.88797
      vertex -1.31136 -18.5455 3.96954
    endloop
  endfacet
  facet normal 0.692725 -0.00099136 -0.721201
    outer loop
      vertex -1.38815 -12.8582 3.88797
      vertex -1.1729 -12.8582 4.09472
      vertex -1.31136 -18.5455 3.96954
    endloop
  endfacet
  facet normal 0.85264 0.000972917 -0.522498
    outer loop
      vertex -1.65241 -18.5455 3.50013
      vertex -1.56744 -12.8582 3.64937
      vertex -1.50036 -18.5455 3.74826
    endloop
  endfacet
  facet normal 0.799441 -0.00101503 -0.600743
    outer loop
      vertex -1.56744 -12.8582 3.64937
      vertex -1.38815 -12.8582 3.88797
      vertex -1.50036 -18.5455 3.74826
    endloop
  endfacet
  facet normal 0.923877 0.0009887 -0.382687
    outer loop
      vertex -1.76378 -18.5455 3.23127
      vertex -1.70614 -12.8582 3.3851
      vertex -1.65241 -18.5455 3.50013
    endloop
  endfacet
  facet normal 0.885456 -0.00103348 -0.464723
    outer loop
      vertex -1.70614 -12.8582 3.3851
      vertex -1.56744 -12.8582 3.64937
      vertex -1.65241 -18.5455 3.50013
    endloop
  endfacet
  facet normal 0.97237 0.000999141 -0.233442
    outer loop
      vertex -1.83171 -18.5455 2.9483
      vertex -1.80065 -12.8582 3.102
      vertex -1.76378 -18.5455 3.23127
    endloop
  endfacet
  facet normal 0.948536 -0.00104698 -0.316666
    outer loop
      vertex -1.80065 -12.8582 3.102
      vertex -1.70614 -12.8582 3.3851
      vertex -1.76378 -18.5455 3.23127
    endloop
  endfacet
  facet normal 0.98705 -0.00105483 -0.16041
    outer loop
      vertex -1.84853 -12.8582 2.80741
      vertex -1.80065 -12.8582 3.102
      vertex -1.83171 -18.5455 2.9483
    endloop
  endfacet
  facet normal 0.98705 0 0.160411
    outer loop
      vertex -1.84853 -12.8582 2.50895
      vertex -1.80065 -12.8582 2.21436
      vertex -1.80065 4.20364 2.21436
    endloop
  endfacet
  facet normal 0.98705 0 0.160411
    outer loop
      vertex -1.84853 4.20364 2.50895
      vertex -1.84853 -12.8582 2.50895
      vertex -1.80065 4.20364 2.21436
    endloop
  endfacet
  facet normal 1 0 0
    outer loop
      vertex -1.84853 -12.8582 2.50895
      vertex -1.84853 4.20364 2.50895
      vertex -1.84853 4.20364 2.80741
    endloop
  endfacet
  facet normal 1 0 0
    outer loop
      vertex -1.84853 -12.8582 2.80741
      vertex -1.84853 -12.8582 2.50895
      vertex -1.84853 4.20364 2.80741
    endloop
  endfacet
  facet normal 0.98705 0 -0.16041
    outer loop
      vertex -1.84853 -12.8582 2.80741
      vertex -1.84853 4.20364 2.80741
      vertex -1.80065 4.20364 3.102
    endloop
  endfacet
  facet normal 0.98705 0 -0.16041
    outer loop
      vertex -1.80065 -12.8582 3.102
      vertex -1.84853 -12.8582 2.80741
      vertex -1.80065 4.20364 3.102
    endloop
  endfacet
  facet normal 0.948537 0 0.316666
    outer loop
      vertex -1.80065 -12.8582 2.21436
      vertex -1.70614 -12.8582 1.93126
      vertex -1.70614 4.20364 1.93126
    endloop
  endfacet
  facet normal 0.948537 0 0.316666
    outer loop
      vertex -1.80065 4.20364 2.21436
      vertex -1.80065 -12.8582 2.21436
      vertex -1.70614 4.20364 1.93126
    endloop
  endfacet
  facet normal 0.885456 0 0.464723
    outer loop
      vertex -1.70614 -12.8582 1.93126
      vertex -1.56744 -12.8582 1.66699
      vertex -1.56744 4.20364 1.66699
    endloop
  endfacet
  facet normal 0.885456 0 0.464723
    outer loop
      vertex -1.70614 4.20364 1.93126
      vertex -1.70614 -12.8582 1.93126
      vertex -1.56744 4.20364 1.66699
    endloop
  endfacet
  facet normal 0.799442 0 0.600743
    outer loop
      vertex -1.56744 -12.8582 1.66699
      vertex -1.38815 -12.8582 1.42839
      vertex -1.38815 4.20364 1.42839
    endloop
  endfacet
  facet normal 0.799442 0 0.600743
    outer loop
      vertex -1.56744 4.20364 1.66699
      vertex -1.56744 -12.8582 1.66699
      vertex -1.38815 4.20364 1.42839
    endloop
  endfacet
  facet normal 0.692726 0 0.721201
    outer loop
      vertex -1.38815 -12.8582 1.42839
      vertex -1.1729 -12.8582 1.22164
      vertex -1.1729 4.20364 1.22164
    endloop
  endfacet
  facet normal 0.692726 0 0.721201
    outer loop
      vertex -1.38815 4.20364 1.42839
      vertex -1.38815 -12.8582 1.42839
      vertex -1.1729 4.20364 1.22164
    endloop
  endfacet
  facet normal 0.568061 0 0.822986
    outer loop
      vertex -1.1729 -12.8582 1.22164
      vertex -0.927271 -12.8582 1.0521
      vertex -0.927271 4.20364 1.0521
    endloop
  endfacet
  facet normal 0.568061 0 0.822986
    outer loop
      vertex -1.1729 4.20364 1.22164
      vertex -1.1729 -12.8582 1.22164
      vertex -0.927271 4.20364 1.0521
    endloop
  endfacet
  facet normal 0.428693 0 0.90345
    outer loop
      vertex -0.927271 -12.8582 1.0521
      vertex -0.65763 -12.8582 0.924153
      vertex -0.65763 4.20364 0.924153
    endloop
  endfacet
  facet normal 0.428693 0 0.90345
    outer loop
      vertex -0.927271 4.20364 1.0521
      vertex -0.927271 -12.8582 1.0521
      vertex -0.65763 4.20364 0.924153
    endloop
  endfacet
  facet normal 0.278219 0 0.960518
    outer loop
      vertex -0.65763 -12.8582 0.924153
      vertex -0.370956 -12.8582 0.841117
      vertex -0.370956 4.20364 0.841117
    endloop
  endfacet
  facet normal 0.278219 0 0.960518
    outer loop
      vertex -0.65763 4.20364 0.924153
      vertex -0.65763 -12.8582 0.924153
      vertex -0.370956 4.20364 0.841117
    endloop
  endfacet
  facet normal 0.120539 0 0.992709
    outer loop
      vertex -0.370956 -12.8582 0.841117
      vertex -0.0746751 -12.8582 0.805141
      vertex -0.0746751 4.20364 0.805141
    endloop
  endfacet
  facet normal 0.120539 0 0.992709
    outer loop
      vertex -0.370956 4.20364 0.841117
      vertex -0.370956 -12.8582 0.841117
      vertex -0.0746751 4.20364 0.805141
    endloop
  endfacet
  facet normal -0.0402653 0 0.999189
    outer loop
      vertex -0.0746751 -12.8582 0.805141
      vertex 0.223539 -12.8582 0.817158
      vertex 0.223539 4.20364 0.817158
    endloop
  endfacet
  facet normal -0.0402653 0 0.999189
    outer loop
      vertex -0.0746751 4.20364 0.805141
      vertex -0.0746751 -12.8582 0.805141
      vertex 0.223539 4.20364 0.817158
    endloop
  endfacet
  facet normal -0.200028 0 0.97979
    outer loop
      vertex 0.223539 -12.8582 0.817158
      vertex 0.515968 -12.8582 0.876859
      vertex 0.515968 4.20364 0.876859
    endloop
  endfacet
  facet normal -0.200028 0 0.97979
    outer loop
      vertex 0.223539 4.20364 0.817158
      vertex 0.223539 -12.8582 0.817158
      vertex 0.515968 4.20364 0.876859
    endloop
  endfacet
  facet normal -0.354604 0 0.935017
    outer loop
      vertex 0.515968 -12.8582 0.876859
      vertex 0.79503 -12.8582 0.982693
      vertex 0.79503 4.20364 0.982693
    endloop
  endfacet
  facet normal -0.354604 0 0.935017
    outer loop
      vertex 0.515968 4.20364 0.876859
      vertex 0.515968 -12.8582 0.876859
      vertex 0.79503 4.20364 0.982693
    endloop
  endfacet
  facet normal -0.499999 0 0.866026
    outer loop
      vertex 0.79503 -12.8582 0.982693
      vertex 1.0535 -12.8582 1.13192
      vertex 1.0535 4.20364 1.13192
    endloop
  endfacet
  facet normal -0.499999 0 0.866026
    outer loop
      vertex 0.79503 4.20364 0.982693
      vertex 0.79503 -12.8582 0.982693
      vertex 1.0535 4.20364 1.13192
    endloop
  endfacet
  facet normal -0.632448 0 0.774603
    outer loop
      vertex 1.0535 -12.8582 1.13192
      vertex 1.28469 -12.8582 1.32068
      vertex 1.28469 4.20364 1.32068
    endloop
  endfacet
  facet normal -0.632448 0 0.774603
    outer loop
      vertex 1.0535 4.20364 1.13192
      vertex 1.0535 -12.8582 1.13192
      vertex 1.28469 4.20364 1.32068
    endloop
  endfacet
  facet normal -0.748509 0 0.663124
    outer loop
      vertex 1.4826 -12.8582 1.54408
      vertex 1.4826 4.20364 1.54408
      vertex 1.28469 -12.8582 1.32068
    endloop
  endfacet
  facet normal -0.748509 0 0.663124
    outer loop
      vertex 1.28469 -12.8582 1.32068
      vertex 1.4826 4.20364 1.54408
      vertex 1.28469 4.20364 1.32068
    endloop
  endfacet
  facet normal -0.845188 0 0.534468
    outer loop
      vertex 1.64212 -12.8582 1.79633
      vertex 1.64212 4.20364 1.79633
      vertex 1.4826 -12.8582 1.54408
    endloop
  endfacet
  facet normal -0.845188 0 0.534468
    outer loop
      vertex 1.4826 -12.8582 1.54408
      vertex 1.64212 4.20364 1.79633
      vertex 1.4826 4.20364 1.54408
    endloop
  endfacet
  facet normal -0.91998 0 0.391966
    outer loop
      vertex 1.7591 -12.8582 2.07091
      vertex 1.7591 4.20364 2.07091
      vertex 1.64212 -12.8582 1.79633
    endloop
  endfacet
  facet normal -0.91998 0 0.391966
    outer loop
      vertex 1.64212 -12.8582 1.79633
      vertex 1.7591 4.20364 2.07091
      vertex 1.64212 4.20364 1.79633
    endloop
  endfacet
  facet normal -0.970943 0 0.239312
    outer loop
      vertex 1.83053 -12.8582 2.36069
      vertex 1.83053 4.20364 2.36069
      vertex 1.7591 -12.8582 2.07091
    endloop
  endfacet
  facet normal -0.970943 0 0.239312
    outer loop
      vertex 1.7591 -12.8582 2.07091
      vertex 1.83053 4.20364 2.36069
      vertex 1.7591 4.20364 2.07091
    endloop
  endfacet
  facet normal -0.996757 0 0.0804723
    outer loop
      vertex 1.85455 -12.8582 2.65818
      vertex 1.85455 4.20364 2.65818
      vertex 1.83053 -12.8582 2.36069
    endloop
  endfacet
  facet normal -0.996757 0 0.0804723
    outer loop
      vertex 1.83053 -12.8582 2.36069
      vertex 1.85455 4.20364 2.65818
      vertex 1.83053 4.20364 2.36069
    endloop
  endfacet
  facet normal -0.996757 0 -0.0804726
    outer loop
      vertex 1.83053 4.20364 2.95567
      vertex 1.85455 4.20364 2.65818
      vertex 1.83053 -12.8582 2.95567
    endloop
  endfacet
  facet normal -0.996757 0 -0.0804726
    outer loop
      vertex 1.83053 -12.8582 2.95567
      vertex 1.85455 4.20364 2.65818
      vertex 1.85455 -12.8582 2.65818
    endloop
  endfacet
  facet normal -0.970943 0 -0.239312
    outer loop
      vertex 1.7591 4.20364 3.24546
      vertex 1.83053 4.20364 2.95567
      vertex 1.7591 -12.8582 3.24546
    endloop
  endfacet
  facet normal -0.970943 0 -0.239312
    outer loop
      vertex 1.7591 -12.8582 3.24546
      vertex 1.83053 4.20364 2.95567
      vertex 1.83053 -12.8582 2.95567
    endloop
  endfacet
  facet normal -0.91998 0 -0.391966
    outer loop
      vertex 1.64212 4.20364 3.52003
      vertex 1.7591 4.20364 3.24546
      vertex 1.64212 -12.8582 3.52003
    endloop
  endfacet
  facet normal -0.91998 0 -0.391966
    outer loop
      vertex 1.64212 -12.8582 3.52003
      vertex 1.7591 4.20364 3.24546
      vertex 1.7591 -12.8582 3.24546
    endloop
  endfacet
  facet normal -0.845188 0 -0.534468
    outer loop
      vertex 1.4826 4.20364 3.77229
      vertex 1.64212 4.20364 3.52003
      vertex 1.4826 -12.8582 3.77229
    endloop
  endfacet
  facet normal -0.845188 0 -0.534468
    outer loop
      vertex 1.4826 -12.8582 3.77229
      vertex 1.64212 4.20364 3.52003
      vertex 1.64212 -12.8582 3.52003
    endloop
  endfacet
  facet normal -0.748509 0 -0.663124
    outer loop
      vertex 1.28469 4.20364 3.99568
      vertex 1.4826 4.20364 3.77229
      vertex 1.28469 -12.8582 3.99568
    endloop
  endfacet
  facet normal -0.748509 0 -0.663124
    outer loop
      vertex 1.28469 -12.8582 3.99568
      vertex 1.4826 4.20364 3.77229
      vertex 1.4826 -12.8582 3.77229
    endloop
  endfacet
  facet normal -0.63245 0 -0.774601
    outer loop
      vertex 1.0535 4.20364 4.18444
      vertex 1.28469 4.20364 3.99568
      vertex 1.0535 -12.8582 4.18444
    endloop
  endfacet
  facet normal -0.63245 0 -0.774601
    outer loop
      vertex 1.0535 -12.8582 4.18444
      vertex 1.28469 4.20364 3.99568
      vertex 1.28469 -12.8582 3.99568
    endloop
  endfacet
  facet normal -0.499996 0 -0.866028
    outer loop
      vertex 0.79503 4.20364 4.33367
      vertex 1.0535 4.20364 4.18444
      vertex 0.79503 -12.8582 4.33367
    endloop
  endfacet
  facet normal -0.499996 0 -0.866028
    outer loop
      vertex 0.79503 -12.8582 4.33367
      vertex 1.0535 4.20364 4.18444
      vertex 1.0535 -12.8582 4.18444
    endloop
  endfacet
  facet normal -0.354604 0 -0.935017
    outer loop
      vertex 0.515968 4.20364 4.43951
      vertex 0.79503 4.20364 4.33367
      vertex 0.515968 -12.8582 4.43951
    endloop
  endfacet
  facet normal -0.354604 0 -0.935017
    outer loop
      vertex 0.515968 -12.8582 4.43951
      vertex 0.79503 4.20364 4.33367
      vertex 0.79503 -12.8582 4.33367
    endloop
  endfacet
  facet normal -0.200028 0 -0.97979
    outer loop
      vertex 0.223539 4.20364 4.49921
      vertex 0.515968 4.20364 4.43951
      vertex 0.223539 -12.8582 4.49921
    endloop
  endfacet
  facet normal -0.200028 0 -0.97979
    outer loop
      vertex 0.223539 -12.8582 4.49921
      vertex 0.515968 4.20364 4.43951
      vertex 0.515968 -12.8582 4.43951
    endloop
  endfacet
  facet normal -0.0402612 0 -0.999189
    outer loop
      vertex -0.0746751 4.20364 4.51122
      vertex 0.223539 4.20364 4.49921
      vertex -0.0746751 -12.8582 4.51122
    endloop
  endfacet
  facet normal -0.0402612 0 -0.999189
    outer loop
      vertex -0.0746751 -12.8582 4.51122
      vertex 0.223539 4.20364 4.49921
      vertex 0.223539 -12.8582 4.49921
    endloop
  endfacet
  facet normal 0.120535 0 -0.992709
    outer loop
      vertex -0.370956 4.20364 4.47525
      vertex -0.0746751 4.20364 4.51122
      vertex -0.370956 -12.8582 4.47525
    endloop
  endfacet
  facet normal 0.120535 0 -0.992709
    outer loop
      vertex -0.370956 -12.8582 4.47525
      vertex -0.0746751 4.20364 4.51122
      vertex -0.0746751 -12.8582 4.51122
    endloop
  endfacet
  facet normal 0.278219 0 -0.960518
    outer loop
      vertex -0.65763 4.20364 4.39221
      vertex -0.370956 4.20364 4.47525
      vertex -0.65763 -12.8582 4.39221
    endloop
  endfacet
  facet normal 0.278219 0 -0.960518
    outer loop
      vertex -0.65763 -12.8582 4.39221
      vertex -0.370956 4.20364 4.47525
      vertex -0.370956 -12.8582 4.47525
    endloop
  endfacet
  facet normal 0.428693 0 -0.90345
    outer loop
      vertex -0.927271 4.20364 4.26427
      vertex -0.65763 4.20364 4.39221
      vertex -0.927271 -12.8582 4.26427
    endloop
  endfacet
  facet normal 0.428693 0 -0.90345
    outer loop
      vertex -0.927271 -12.8582 4.26427
      vertex -0.65763 4.20364 4.39221
      vertex -0.65763 -12.8582 4.39221
    endloop
  endfacet
  facet normal 0.568061 0 -0.822986
    outer loop
      vertex -1.1729 4.20364 4.09472
      vertex -0.927271 4.20364 4.26427
      vertex -1.1729 -12.8582 4.09472
    endloop
  endfacet
  facet normal 0.568061 0 -0.822986
    outer loop
      vertex -1.1729 -12.8582 4.09472
      vertex -0.927271 4.20364 4.26427
      vertex -0.927271 -12.8582 4.26427
    endloop
  endfacet
  facet normal 0.692726 0 -0.721201
    outer loop
      vertex -1.38815 4.20364 3.88797
      vertex -1.1729 4.20364 4.09472
      vertex -1.38815 -12.8582 3.88797
    endloop
  endfacet
  facet normal 0.692726 0 -0.721201
    outer loop
      vertex -1.38815 -12.8582 3.88797
      vertex -1.1729 4.20364 4.09472
      vertex -1.1729 -12.8582 4.09472
    endloop
  endfacet
  facet normal 0.799442 0 -0.600743
    outer loop
      vertex -1.56744 -12.8582 3.64937
      vertex -1.56744 4.20364 3.64937
      vertex -1.38815 4.20364 3.88797
    endloop
  endfacet
  facet normal 0.799442 0 -0.600743
    outer loop
      vertex -1.38815 -12.8582 3.88797
      vertex -1.56744 -12.8582 3.64937
      vertex -1.38815 4.20364 3.88797
    endloop
  endfacet
  facet normal 0.885456 0 -0.464723
    outer loop
      vertex -1.70614 -12.8582 3.3851
      vertex -1.70614 4.20364 3.3851
      vertex -1.56744 4.20364 3.64937
    endloop
  endfacet
  facet normal 0.885456 0 -0.464723
    outer loop
      vertex -1.56744 -12.8582 3.64937
      vertex -1.70614 -12.8582 3.3851
      vertex -1.56744 4.20364 3.64937
    endloop
  endfacet
  facet normal 0.948537 0 -0.316666
    outer loop
      vertex -1.80065 -12.8582 3.102
      vertex -1.80065 4.20364 3.102
      vertex -1.70614 4.20364 3.3851
    endloop
  endfacet
  facet normal 0.948537 0 -0.316666
    outer loop
      vertex -1.70614 -12.8582 3.3851
      vertex -1.80065 -12.8582 3.102
      vertex -1.70614 4.20364 3.3851
    endloop
  endfacet
  facet normal 0.999999 0.00105739 0
    outer loop
      vertex -1.85454 9.89091 2.65818
      vertex -1.84853 4.20364 2.80741
      vertex -1.84853 4.20364 2.50895
    endloop
  endfacet
  facet normal 0.996917 -0.00100452 0.0784572
    outer loop
      vertex -1.85454 9.89091 2.65818
      vertex -1.84853 4.20364 2.50895
      vertex -1.83171 9.89091 2.36807
    endloop
  endfacet
  facet normal 0.98705 0.00105481 0.160411
    outer loop
      vertex -1.84853 4.20364 2.50895
      vertex -1.80065 4.20364 2.21436
      vertex -1.83171 9.89091 2.36807
    endloop
  endfacet
  facet normal 0.97237 -0.000999141 0.233442
    outer loop
      vertex -1.83171 9.89091 2.36807
      vertex -1.80065 4.20364 2.21436
      vertex -1.76378 9.89091 2.0851
    endloop
  endfacet
  facet normal 0.948536 0.00104698 0.316666
    outer loop
      vertex -1.80065 4.20364 2.21436
      vertex -1.70614 4.20364 1.93126
      vertex -1.76378 9.89091 2.0851
    endloop
  endfacet
  facet normal 0.98705 0.00105483 -0.16041
    outer loop
      vertex -1.84853 4.20364 2.80741
      vertex -1.83171 9.89091 2.9483
      vertex -1.80065 4.20364 3.102
    endloop
  endfacet
  facet normal 0.996917 -0.00100451 -0.0784569
    outer loop
      vertex -1.85454 9.89091 2.65818
      vertex -1.83171 9.89091 2.9483
      vertex -1.84853 4.20364 2.80741
    endloop
  endfacet
  facet normal 0.948536 0.00104698 -0.316666
    outer loop
      vertex -1.80065 4.20364 3.102
      vertex -1.76378 9.89091 3.23127
      vertex -1.70614 4.20364 3.3851
    endloop
  endfacet
  facet normal 0.97237 -0.000999141 -0.233442
    outer loop
      vertex -1.83171 9.89091 2.9483
      vertex -1.76378 9.89091 3.23127
      vertex -1.80065 4.20364 3.102
    endloop
  endfacet
  facet normal 0.923877 -0.0009887 0.382687
    outer loop
      vertex -1.76378 9.89091 2.0851
      vertex -1.70614 4.20364 1.93126
      vertex -1.65241 9.89091 1.81624
    endloop
  endfacet
  facet normal 0.885456 0.00103348 0.464723
    outer loop
      vertex -1.70614 4.20364 1.93126
      vertex -1.56744 4.20364 1.66699
      vertex -1.65241 9.89091 1.81624
    endloop
  endfacet
  facet normal 0.85264 -0.000972917 0.522498
    outer loop
      vertex -1.65241 9.89091 1.81624
      vertex -1.56744 4.20364 1.66699
      vertex -1.50036 9.89091 1.56811
    endloop
  endfacet
  facet normal 0.799441 0.00101503 0.600743
    outer loop
      vertex -1.56744 4.20364 1.66699
      vertex -1.38815 4.20364 1.42839
      vertex -1.50036 9.89091 1.56811
    endloop
  endfacet
  facet normal 0.760408 -0.000951587 0.649445
    outer loop
      vertex -1.50036 9.89091 1.56811
      vertex -1.38815 4.20364 1.42839
      vertex -1.31136 9.89091 1.34682
    endloop
  endfacet
  facet normal 0.692725 0.00099136 0.721201
    outer loop
      vertex -1.38815 4.20364 1.42839
      vertex -1.1729 4.20364 1.22164
      vertex -1.31136 9.89091 1.34682
    endloop
  endfacet
  facet normal 0.649448 -0.000925189 0.760406
    outer loop
      vertex -1.31136 9.89091 1.34682
      vertex -1.1729 4.20364 1.22164
      vertex -1.09007 9.89091 1.15782
    endloop
  endfacet
  facet normal 0.568061 0.000962283 0.822986
    outer loop
      vertex -1.1729 4.20364 1.22164
      vertex -0.927271 4.20364 1.0521
      vertex -1.09007 9.89091 1.15782
    endloop
  endfacet
  facet normal 0.522496 -0.000893337 0.852641
    outer loop
      vertex -1.09007 9.89091 1.15782
      vertex -0.927271 4.20364 1.0521
      vertex -0.841945 9.89091 1.00577
    endloop
  endfacet
  facet normal 0.428693 0.000927889 0.90345
    outer loop
      vertex -0.927271 4.20364 1.0521
      vertex -0.65763 4.20364 0.924153
      vertex -0.841945 9.89091 1.00577
    endloop
  endfacet
  facet normal 0.382687 -0.000856215 0.923878
    outer loop
      vertex -0.841945 9.89091 1.00577
      vertex -0.65763 4.20364 0.924153
      vertex -0.573085 9.89091 0.894404
    endloop
  endfacet
  facet normal 0.278219 0.000888441 0.960517
    outer loop
      vertex -0.65763 4.20364 0.924153
      vertex -0.370956 4.20364 0.841117
      vertex -0.573085 9.89091 0.894404
    endloop
  endfacet
  facet normal 0.233441 -0.000814039 0.972371
    outer loop
      vertex -0.573085 9.89091 0.894404
      vertex -0.370956 4.20364 0.841117
      vertex -0.290113 9.89091 0.82647
    endloop
  endfacet
  facet normal 0.120539 0.000843221 0.992708
    outer loop
      vertex -0.370956 4.20364 0.841117
      vertex -0.0746751 4.20364 0.805141
      vertex -0.290113 9.89091 0.82647
    endloop
  endfacet
  facet normal 0.0784572 -0.000766645 0.996917
    outer loop
      vertex -0.290113 9.89091 0.82647
      vertex -0.0746751 4.20364 0.805141
      vertex 1.23636e-06 9.89091 0.803638
    endloop
  endfacet
  facet normal -0.0402653 0.000792835 0.999189
    outer loop
      vertex -0.0746751 4.20364 0.805141
      vertex 0.223539 4.20364 0.817158
      vertex 1.23636e-06 9.89091 0.803638
    endloop
  endfacet
  facet normal -0.0784569 -0.000713687 0.996917
    outer loop
      vertex 1.23636e-06 9.89091 0.803638
      vertex 0.223539 4.20364 0.817158
      vertex 0.290116 9.89091 0.82647
    endloop
  endfacet
  facet normal -0.200028 0.000737497 0.97979
    outer loop
      vertex 0.223539 4.20364 0.817158
      vertex 0.515968 4.20364 0.876859
      vertex 0.290116 9.89091 0.82647
    endloop
  endfacet
  facet normal -0.233444 -0.000655273 0.97237
    outer loop
      vertex 0.290116 9.89091 0.82647
      vertex 0.515968 4.20364 0.876859
      vertex 0.573085 9.89091 0.894404
    endloop
  endfacet
  facet normal -0.354604 0.000676776 0.935016
    outer loop
      vertex 0.515968 4.20364 0.876859
      vertex 0.79503 4.20364 0.982693
      vertex 0.573085 9.89091 0.894404
    endloop
  endfacet
  facet normal -0.382687 -0.000592097 0.923878
    outer loop
      vertex 0.573085 9.89091 0.894404
      vertex 0.79503 4.20364 0.982693
      vertex 0.841945 9.89091 1.00577
    endloop
  endfacet
  facet normal -0.499999 0.000610376 0.866026
    outer loop
      vertex 0.79503 4.20364 0.982693
      vertex 1.0535 4.20364 1.13192
      vertex 0.841945 9.89091 1.00577
    endloop
  endfacet
  facet normal -0.522494 -0.000523255 0.852643
    outer loop
      vertex 0.841945 9.89091 1.00577
      vertex 1.0535 4.20364 1.13192
      vertex 1.09008 9.89091 1.15782
    endloop
  endfacet
  facet normal -0.632448 0.000539242 0.774603
    outer loop
      vertex 1.0535 4.20364 1.13192
      vertex 1.28469 4.20364 1.32068
      vertex 1.09008 9.89091 1.15782
    endloop
  endfacet
  facet normal -0.64945 -0.000449129 0.760404
    outer loop
      vertex 1.09008 9.89091 1.15782
      vertex 1.28469 4.20364 1.32068
      vertex 1.31136 9.89091 1.34682
    endloop
  endfacet
  facet normal -0.748509 0.000462589 0.663124
    outer loop
      vertex 1.28469 4.20364 1.32068
      vertex 1.4826 4.20364 1.54408
      vertex 1.31136 9.89091 1.34682
    endloop
  endfacet
  facet normal -0.760408 -0.000370089 0.649446
    outer loop
      vertex 1.31136 9.89091 1.34682
      vertex 1.4826 4.20364 1.54408
      vertex 1.50036 9.89091 1.56811
    endloop
  endfacet
  facet normal -0.845188 0.000380396 0.534468
    outer loop
      vertex 1.4826 4.20364 1.54408
      vertex 1.64212 4.20364 1.79633
      vertex 1.50036 9.89091 1.56811
    endloop
  endfacet
  facet normal -0.852637 -0.000285378 0.522504
    outer loop
      vertex 1.50036 9.89091 1.56811
      vertex 1.64212 4.20364 1.79633
      vertex 1.65241 9.89091 1.81624
    endloop
  endfacet
  facet normal -0.91998 0.000293369 0.391966
    outer loop
      vertex 1.64212 4.20364 1.79633
      vertex 1.7591 4.20364 2.07091
      vertex 1.65241 9.89091 1.81624
    endloop
  endfacet
  facet normal -0.923881 -0.000195598 0.38268
    outer loop
      vertex 1.65241 9.89091 1.81624
      vertex 1.7591 4.20364 2.07091
      vertex 1.76378 9.89091 2.0851
    endloop
  endfacet
  facet normal -0.970943 0.000200779 0.239312
    outer loop
      vertex 1.7591 4.20364 2.07091
      vertex 1.83053 4.20364 2.36069
      vertex 1.76378 9.89091 2.0851
    endloop
  endfacet
  facet normal -0.972371 -0.000100418 0.233442
    outer loop
      vertex 1.76378 9.89091 2.0851
      vertex 1.83053 4.20364 2.36069
      vertex 1.83171 9.89091 2.36807
    endloop
  endfacet
  facet normal -0.996757 0.000103017 0.0804723
    outer loop
      vertex 1.83053 4.20364 2.36069
      vertex 1.85455 4.20364 2.65818
      vertex 1.83171 9.89091 2.36807
    endloop
  endfacet
  facet normal -0.996917 0 0.0784654
    outer loop
      vertex 1.83171 9.89091 2.36807
      vertex 1.85455 4.20364 2.65818
      vertex 1.85455 9.89091 2.65818
    endloop
  endfacet
  facet normal -0.996917 0 -0.0784657
    outer loop
      vertex 1.83171 9.89091 2.9483
      vertex 1.85455 9.89091 2.65818
      vertex 1.85455 4.20364 2.65818
    endloop
  endfacet
  facet normal -0.996757 0.000103017 -0.0804726
    outer loop
      vertex 1.83053 4.20364 2.95567
      vertex 1.83171 9.89091 2.9483
      vertex 1.85455 4.20364 2.65818
    endloop
  endfacet
  facet normal -0.972371 -0.000100418 -0.233442
    outer loop
      vertex 1.76378 9.89091 3.23127
      vertex 1.83171 9.89091 2.9483
      vertex 1.83053 4.20364 2.95567
    endloop
  endfacet
  facet normal -0.970943 0.000200779 -0.239312
    outer loop
      vertex 1.7591 4.20364 3.24546
      vertex 1.76378 9.89091 3.23127
      vertex 1.83053 4.20364 2.95567
    endloop
  endfacet
  facet normal -0.923881 -0.000195598 -0.38268
    outer loop
      vertex 1.65241 9.89091 3.50013
      vertex 1.76378 9.89091 3.23127
      vertex 1.7591 4.20364 3.24546
    endloop
  endfacet
  facet normal -0.91998 0.000293369 -0.391966
    outer loop
      vertex 1.64212 4.20364 3.52003
      vertex 1.65241 9.89091 3.50013
      vertex 1.7591 4.20364 3.24546
    endloop
  endfacet
  facet normal -0.852637 -0.000285378 -0.522504
    outer loop
      vertex 1.50036 9.89091 3.74826
      vertex 1.65241 9.89091 3.50013
      vertex 1.64212 4.20364 3.52003
    endloop
  endfacet
  facet normal -0.845188 0.000380396 -0.534468
    outer loop
      vertex 1.4826 4.20364 3.77229
      vertex 1.50036 9.89091 3.74826
      vertex 1.64212 4.20364 3.52003
    endloop
  endfacet
  facet normal -0.760408 -0.000370089 -0.649446
    outer loop
      vertex 1.31136 9.89091 3.96954
      vertex 1.50036 9.89091 3.74826
      vertex 1.4826 4.20364 3.77229
    endloop
  endfacet
  facet normal -0.748509 0.000462589 -0.663124
    outer loop
      vertex 1.28469 4.20364 3.99568
      vertex 1.31136 9.89091 3.96954
      vertex 1.4826 4.20364 3.77229
    endloop
  endfacet
  facet normal -0.64945 -0.000449129 -0.760404
    outer loop
      vertex 1.09008 9.89091 4.15854
      vertex 1.31136 9.89091 3.96954
      vertex 1.28469 4.20364 3.99568
    endloop
  endfacet
  facet normal -0.63245 0.000539099 -0.774601
    outer loop
      vertex 1.0535 4.20364 4.18444
      vertex 1.09008 9.89091 4.15854
      vertex 1.28469 4.20364 3.99568
    endloop
  endfacet
  facet normal -0.522494 -0.00052344 -0.852643
    outer loop
      vertex 0.841945 9.89091 4.31059
      vertex 1.09008 9.89091 4.15854
      vertex 1.0535 4.20364 4.18444
    endloop
  endfacet
  facet normal -0.499996 0.000610343 -0.866028
    outer loop
      vertex 0.79503 4.20364 4.33367
      vertex 0.841945 9.89091 4.31059
      vertex 1.0535 4.20364 4.18444
    endloop
  endfacet
  facet normal -0.382687 -0.000592097 -0.923878
    outer loop
      vertex 0.573085 9.89091 4.42196
      vertex 0.841945 9.89091 4.31059
      vertex 0.79503 4.20364 4.33367
    endloop
  endfacet
  facet normal -0.354604 0.000676776 -0.935016
    outer loop
      vertex 0.515968 4.20364 4.43951
      vertex 0.573085 9.89091 4.42196
      vertex 0.79503 4.20364 4.33367
    endloop
  endfacet
  facet normal -0.23344 -0.000655316 -0.972371
    outer loop
      vertex 0.290116 9.89091 4.48989
      vertex 0.573085 9.89091 4.42196
      vertex 0.515968 4.20364 4.43951
    endloop
  endfacet
  facet normal -0.200028 0.000737284 -0.97979
    outer loop
      vertex 0.223539 4.20364 4.49921
      vertex 0.290116 9.89091 4.48989
      vertex 0.515968 4.20364 4.43951
    endloop
  endfacet
  facet normal -0.0784611 -0.000713854 -0.996917
    outer loop
      vertex 1.23636e-06 9.89091 4.51273
      vertex 0.290116 9.89091 4.48989
      vertex 0.223539 4.20364 4.49921
    endloop
  endfacet
  facet normal -0.0402612 0.000792998 -0.999189
    outer loop
      vertex -0.0746751 4.20364 4.51122
      vertex 1.23636e-06 9.89091 4.51273
      vertex 0.223539 4.20364 4.49921
    endloop
  endfacet
  facet normal 0.0784611 -0.00076648 -0.996917
    outer loop
      vertex -0.290114 9.89091 4.48989
      vertex 1.23636e-06 9.89091 4.51273
      vertex -0.0746751 4.20364 4.51122
    endloop
  endfacet
  facet normal 0.120535 0.000843091 -0.992709
    outer loop
      vertex -0.370956 4.20364 4.47525
      vertex -0.290114 9.89091 4.48989
      vertex -0.0746751 4.20364 4.51122
    endloop
  endfacet
  facet normal 0.233438 -0.000814154 -0.972371
    outer loop
      vertex -0.573085 9.89091 4.42196
      vertex -0.290114 9.89091 4.48989
      vertex -0.370956 4.20364 4.47525
    endloop
  endfacet
  facet normal 0.278219 0.000888441 -0.960517
    outer loop
      vertex -0.65763 4.20364 4.39221
      vertex -0.573085 9.89091 4.42196
      vertex -0.370956 4.20364 4.47525
    endloop
  endfacet
  facet normal 0.382687 -0.000856215 -0.923878
    outer loop
      vertex -0.841945 9.89091 4.31059
      vertex -0.573085 9.89091 4.42196
      vertex -0.65763 4.20364 4.39221
    endloop
  endfacet
  facet normal 0.428693 0.000927889 -0.90345
    outer loop
      vertex -0.927271 4.20364 4.26427
      vertex -0.841945 9.89091 4.31059
      vertex -0.65763 4.20364 4.39221
    endloop
  endfacet
  facet normal 0.522494 -0.000893299 -0.852643
    outer loop
      vertex -1.09008 9.89091 4.15854
      vertex -0.841945 9.89091 4.31059
      vertex -0.927271 4.20364 4.26427
    endloop
  endfacet
  facet normal 0.568061 0.000962406 -0.822986
    outer loop
      vertex -1.1729 4.20364 4.09472
      vertex -1.09008 9.89091 4.15854
      vertex -0.927271 4.20364 4.26427
    endloop
  endfacet
  facet normal 0.64945 -0.000925099 -0.760404
    outer loop
      vertex -1.31136 9.89091 3.96954
      vertex -1.09008 9.89091 4.15854
      vertex -1.1729 4.20364 4.09472
    endloop
  endfacet
  facet normal 0.692725 0.00099136 -0.721201
    outer loop
      vertex -1.38815 4.20364 3.88797
      vertex -1.31136 9.89091 3.96954
      vertex -1.1729 4.20364 4.09472
    endloop
  endfacet
  facet normal 0.760408 -0.000951587 -0.649445
    outer loop
      vertex -1.50036 9.89091 3.74826
      vertex -1.31136 9.89091 3.96954
      vertex -1.38815 4.20364 3.88797
    endloop
  endfacet
  facet normal 0.799441 0.00101503 -0.600743
    outer loop
      vertex -1.56744 4.20364 3.64937
      vertex -1.50036 9.89091 3.74826
      vertex -1.38815 4.20364 3.88797
    endloop
  endfacet
  facet normal 0.85264 -0.000972917 -0.522498
    outer loop
      vertex -1.65241 9.89091 3.50013
      vertex -1.50036 9.89091 3.74826
      vertex -1.56744 4.20364 3.64937
    endloop
  endfacet
  facet normal 0.885456 0.00103348 -0.464723
    outer loop
      vertex -1.70614 4.20364 3.3851
      vertex -1.65241 9.89091 3.50013
      vertex -1.56744 4.20364 3.64937
    endloop
  endfacet
  facet normal 0.923877 -0.0009887 -0.382687
    outer loop
      vertex -1.76378 9.89091 3.23127
      vertex -1.65241 9.89091 3.50013
      vertex -1.70614 4.20364 3.3851
    endloop
  endfacet
  facet normal 0 -1 0
    outer loop
      vertex -1.85454 9.89091 2.65818
      vertex -1.83171 9.89091 2.36807
      vertex -1.76378 9.89091 2.0851
    endloop
  endfacet
  facet normal 0 -1 0
    outer loop
      vertex -1.50036 9.89091 1.56811
      vertex -1.85454 9.89091 2.65818
      vertex -1.65241 9.89091 1.81624
    endloop
  endfacet
  facet normal 0 -1 0
    outer loop
      vertex -1.65241 9.89091 1.81624
      vertex -1.85454 9.89091 2.65818
      vertex -1.76378 9.89091 2.0851
    endloop
  endfacet
  facet normal 0 -1 0
    outer loop
      vertex -1.31136 9.89091 1.34682
      vertex -1.85454 9.89091 2.65818
      vertex -1.50036 9.89091 1.56811
    endloop
  endfacet
  facet normal 0 -1 0
    outer loop
      vertex -1.09007 9.89091 1.15782
      vertex -1.85454 9.89091 2.65818
      vertex -1.31136 9.89091 1.34682
    endloop
  endfacet
  facet normal 0 -1 0
    outer loop
      vertex -0.841945 9.89091 1.00577
      vertex -1.85454 9.89091 2.65818
      vertex -1.09007 9.89091 1.15782
    endloop
  endfacet
  facet normal 0 -1 0
    outer loop
      vertex -0.573085 9.89091 0.894404
      vertex -1.85454 9.89091 2.65818
      vertex -0.841945 9.89091 1.00577
    endloop
  endfacet
  facet normal 0 -1 0
    outer loop
      vertex -0.290113 9.89091 0.82647
      vertex -1.85454 9.89091 2.65818
      vertex -0.573085 9.89091 0.894404
    endloop
  endfacet
  facet normal 0 -1 0
    outer loop
      vertex 1.23636e-06 9.89091 0.803638
      vertex -1.85454 9.89091 2.65818
      vertex -0.290113 9.89091 0.82647
    endloop
  endfacet
  facet normal 0 -1 0
    outer loop
      vertex 0.290116 9.89091 0.82647
      vertex -1.85454 9.89091 2.65818
      vertex 1.23636e-06 9.89091 0.803638
    endloop
  endfacet
  facet normal 0 -1 0
    outer loop
      vertex 0.573085 9.89091 0.894404
      vertex -1.85454 9.89091 2.65818
      vertex 0.290116 9.89091 0.82647
    endloop
  endfacet
  facet normal 0 -1 0
    outer loop
      vertex 0.841945 9.89091 1.00577
      vertex -1.85454 9.89091 2.65818
      vertex 0.573085 9.89091 0.894404
    endloop
  endfacet
  facet normal 0 -1 0
    outer loop
      vertex 1.09008 9.89091 1.15782
      vertex -1.85454 9.89091 2.65818
      vertex 0.841945 9.89091 1.00577
    endloop
  endfacet
  facet normal 0 -1 0
    outer loop
      vertex 1.31136 9.89091 1.34682
      vertex -1.85454 9.89091 2.65818
      vertex 1.09008 9.89091 1.15782
    endloop
  endfacet
  facet normal 0 -1 0
    outer loop
      vertex 1.50036 9.89091 1.56811
      vertex -1.85454 9.89091 2.65818
      vertex 1.31136 9.89091 1.34682
    endloop
  endfacet
  facet normal 0 -1 0
    outer loop
      vertex 1.65241 9.89091 1.81624
      vertex -1.85454 9.89091 2.65818
      vertex 1.50036 9.89091 1.56811
    endloop
  endfacet
  facet normal 0 -1 0
    outer loop
      vertex 1.76378 9.89091 2.0851
      vertex -1.85454 9.89091 2.65818
      vertex 1.65241 9.89091 1.81624
    endloop
  endfacet
  facet normal 0 -1 0
    outer loop
      vertex 1.83171 9.89091 2.36807
      vertex -1.85454 9.89091 2.65818
      vertex 1.76378 9.89091 2.0851
    endloop
  endfacet
  facet normal 0 -1 0
    outer loop
      vertex 1.85455 9.89091 2.65818
      vertex -1.85454 9.89091 2.65818
      vertex 1.83171 9.89091 2.36807
    endloop
  endfacet
  facet normal 0 -1 0
    outer loop
      vertex 1.83171 9.89091 2.9483
      vertex -1.85454 9.89091 2.65818
      vertex 1.85455 9.89091 2.65818
    endloop
  endfacet
  facet normal 0 -1 0
    outer loop
      vertex 1.76378 9.89091 3.23127
      vertex -1.85454 9.89091 2.65818
      vertex 1.83171 9.89091 2.9483
    endloop
  endfacet
  facet normal 0 -1 0
    outer loop
      vertex 1.65241 9.89091 3.50013
      vertex -1.85454 9.89091 2.65818
      vertex 1.76378 9.89091 3.23127
    endloop
  endfacet
  facet normal 0 -1 0
    outer loop
      vertex 1.50036 9.89091 3.74826
      vertex -1.85454 9.89091 2.65818
      vertex 1.65241 9.89091 3.50013
    endloop
  endfacet
  facet normal 0 -1 0
    outer loop
      vertex 1.31136 9.89091 3.96954
      vertex -1.85454 9.89091 2.65818
      vertex 1.50036 9.89091 3.74826
    endloop
  endfacet
  facet normal 0 -1 0
    outer loop
      vertex 1.09008 9.89091 4.15854
      vertex -1.85454 9.89091 2.65818
      vertex 1.31136 9.89091 3.96954
    endloop
  endfacet
  facet normal 0 -1 0
    outer loop
      vertex 0.841945 9.89091 4.31059
      vertex -1.85454 9.89091 2.65818
      vertex 1.09008 9.89091 4.15854
    endloop
  endfacet
  facet normal 0 -1 0
    outer loop
      vertex 0.573085 9.89091 4.42196
      vertex -1.85454 9.89091 2.65818
      vertex 0.841945 9.89091 4.31059
    endloop
  endfacet
  facet normal 0 -1 0
    outer loop
      vertex 0.290116 9.89091 4.48989
      vertex -1.85454 9.89091 2.65818
      vertex 0.573085 9.89091 4.42196
    endloop
  endfacet
  facet normal 0 -1 0
    outer loop
      vertex 1.23636e-06 9.89091 4.51273
      vertex -1.85454 9.89091 2.65818
      vertex 0.290116 9.89091 4.48989
    endloop
  endfacet
  facet normal 0 -1 0
    outer loop
      vertex -0.290114 9.89091 4.48989
      vertex -1.85454 9.89091 2.65818
      vertex 1.23636e-06 9.89091 4.51273
    endloop
  endfacet
  facet normal 0 -1 0
    outer loop
      vertex -0.573085 9.89091 4.42196
      vertex -1.85454 9.89091 2.65818
      vertex -0.290114 9.89091 4.48989
    endloop
  endfacet
  facet normal 0 -1 0
    outer loop
      vertex -0.841945 9.89091 4.31059
      vertex -1.85454 9.89091 2.65818
      vertex -0.573085 9.89091 4.42196
    endloop
  endfacet
  facet normal 0 -1 0
    outer loop
      vertex -1.09008 9.89091 4.15854
      vertex -1.85454 9.89091 2.65818
      vertex -0.841945 9.89091 4.31059
    endloop
  endfacet
  facet normal 0 -1 0
    outer loop
      vertex -1.31136 9.89091 3.96954
      vertex -1.85454 9.89091 2.65818
      vertex -1.09008 9.89091 4.15854
    endloop
  endfacet
  facet normal 0 -1 0
    outer loop
      vertex -1.50036 9.89091 3.74826
      vertex -1.85454 9.89091 2.65818
      vertex -1.31136 9.89091 3.96954
    endloop
  endfacet
  facet normal 0 -1 0
    outer loop
      vertex -1.65241 9.89091 3.50013
      vertex -1.85454 9.89091 2.65818
      vertex -1.50036 9.89091 3.74826
    endloop
  endfacet
  facet normal 0 -1 0
    outer loop
      vertex -1.76378 9.89091 3.23127
      vertex -1.85454 9.89091 2.65818
      vertex -1.65241 9.89091 3.50013
    endloop
  endfacet
  facet normal 0 -1 0
    outer loop
      vertex -1.83171 9.89091 2.9483
      vertex -1.85454 9.89091 2.65818
      vertex -1.76378 9.89091 3.23127
    endloop
  endfacet
endsolid OpenSCAD_Model
