                                                                        S      1
,,,10Htensioners,22HAutodesk Inventor 2015,7Hunknown,32,38,7,99,15,,1., G      1
1,4HINCH,1,0.08,15H20140624.184804,0.000393700787401575,10000.,6HJascha,G      2
,11,0,;                                                                 G      3
     186       1                                                00000000D      1
     186            -131       1       0                               0D      2
     514       2                                                00010000D      3
     514                       1       1                               0D      4
     510       3                                                00010000D      5
     510            -131       1       1                               0D      6
     510       4                                                00010000D      7
     510            -131       1       1                               0D      8
     510       5                                                00010000D      9
     510            -131       1       1                               0D     10
     510       6                                                00010000D     11
     510            -131       1       1                               0D     12
     510       7                                                00010000D     13
     510            -131       1       1                               0D     14
     510       8                                                00010000D     15
     510            -131       1       1                               0D     16
     510       9                                                00010000D     17
     510            -131       1       1                               0D     18
     510      10                                                00010000D     19
     510            -131       1       1                               0D     20
     510      11                                                00010000D     21
     510            -131       1       1                               0D     22
     510      12                                                00010000D     23
     510            -131       1       1                               0D     24
     510      13                                                00010000D     25
     510            -131       1       1                               0D     26
     508      14                                                00010000D     27
     508                       1       1                               0D     28
     508      15                                                00010000D     29
     508                       1       1                               0D     30
     508      16                                                00010000D     31
     508                       1       1                               0D     32
     508      17                                                00010000D     33
     508                       2       1                               0D     34
     508      19                                                00010000D     35
     508                       1       1                               0D     36
     508      20                                                00010000D     37
     508                       1       1                               0D     38
     508      21                                                00010000D     39
     508                       1       1                               0D     40
     508      22                                                00010000D     41
     508                       1       1                               0D     42
     508      23                                                00010000D     43
     508                       1       1                               0D     44
     508      24                                                00010000D     45
     508                       1       1                               0D     46
     508      25                                                00010000D     47
     508                       1       1                               0D     48
     508      26                                                00010000D     49
     508                       1       1                               0D     50
     508      27                                                00010000D     51
     508                       1       1                               0D     52
     508      28                                                00010000D     53
     508                       2       1                               0D     54
     126      30                                                00010000D     55
     126       0              10       0                               0D     56
     126      40                                                00010000D     57
     126       0               2       0                               0D     58
     126      42                                                00010000D     59
     126       0              10       0                               0D     60
     126      52                                                00010000D     61
     126       0              11       0                               0D     62
     126      63                                                00010000D     63
     126       0               2       0                               0D     64
     126      65                                                00010000D     65
     126       0              11       0                               0D     66
     126      76                                                00010000D     67
     126       0               3       0                               0D     68
     126      79                                                00010000D     69
     126       0               3       0                               0D     70
     126      82                                                00010000D     71
     126       0               3       0                               0D     72
     126      85                                                00010000D     73
     126       0               3       0                               0D     74
     126      88                                                00010000D     75
     126       0               3       0                               0D     76
     126      91                                                00010000D     77
     126       0               3       0                               0D     78
     126      94                                                00010000D     79
     126       0               4       0                               0D     80
     126      98                                                00010000D     81
     126       0               3       0                               0D     82
     126     101                                                00010000D     83
     126       0               3       0                               0D     84
     126     104                                                00010000D     85
     126       0               3       0                               0D     86
     126     107                                                00010000D     87
     126       0               3       0                               0D     88
     126     110                                                00010000D     89
     126       0               3       0                               0D     90
     126     113                                                00010000D     91
     126       0               3       0                               0D     92
     126     116                                                00010000D     93
     126       0               3       0                               0D     94
     126     119                                                00010000D     95
     126       0               3       0                               0D     96
     126     122                                                00010000D     97
     126       0               3       0                               0D     98
     126     125                                                00010000D     99
     126       0               3       0                               0D    100
     126     128                                                00010000D    101
     126       0               3       0                               0D    102
     128     131                                                00010000D    103
     128       0    -131      13       0                               0D    104
     128     144                                                00010000D    105
     128       0    -131       4       0                               0D    106
     128     148                                                00010000D    107
     128       0    -131      17       0                               0D    108
     128     165                                                00010000D    109
     128       0    -131       6       0                               0D    110
     128     171                                                00010000D    111
     128       0    -131       5       0                               0D    112
     128     176                                                00010000D    113
     128       0    -131       5       0                               0D    114
     128     181                                                00010000D    115
     128       0    -131       7       0                               0D    116
     128     188                                                00010000D    117
     128       0    -131       5       0                               0D    118
     128     193                                                00010000D    119
     128       0    -131       4       0                               0D    120
     128     197                                                00010000D    121
     128       0    -131       5       0                               0D    122
     128     202                                                00010000D    123
     128       0    -131       6       0                               0D    124
     502     208                                                00010000D    125
     502                      10       1                               0D    126
     504     218                                                00010001D    127
     504                       7       1                               0D    128
     406     225                                                00000000D    129
     406                       1      15                               0D    130
     314     226                                                00000200D    131
     314                       1       0                               0D    132
186,3,1,0,0,1,129;                                                     1P      1
514,11,5,1,7,1,9,1,11,1,13,1,15,1,17,1,19,1,21,1,23,1,25,1;            3P      2
510,103,1,1,27;                                                        5P      3
510,105,1,1,29;                                                        7P      4
510,107,1,1,31;                                                        9P      5
510,109,2,1,33,35;                                                    11P      6
510,111,1,1,37;                                                       13P      7
510,113,2,1,39,41;                                                    15P      8
510,115,1,1,43;                                                       17P      9
510,117,1,1,45;                                                       19P     10
510,119,2,1,47,49;                                                    21P     11
510,121,1,1,51;                                                       23P     12
510,123,1,1,53;                                                       25P     13
508,4,0,127,1,0,0,0,127,2,1,0,0,127,3,1,0,0,127,2,0,0;                27P     14
508,1,0,127,3,0,0;                                                    29P     15
508,4,0,127,4,0,0,0,127,5,1,0,0,127,6,0,0,0,127,5,0,0;                31P     16
508,6,0,127,7,1,0,0,127,8,1,0,0,127,9,1,0,0,127,10,1,0,0,127,11,      33P     17
1,0,0,127,12,1,0;                                                     33P     18
508,1,0,127,1,1,0;                                                    35P     19
508,4,0,127,13,0,0,0,127,14,0,0,0,127,15,1,0,0,127,8,0,0;             37P     20
508,4,0,127,15,0,0,0,127,16,0,0,0,127,17,1,0,0,127,9,0,0;             39P     21
508,1,0,127,6,1,0;                                                    41P     22
508,4,0,127,17,0,0,0,127,18,0,0,0,127,19,1,0,0,127,10,0,0;            43P     23
508,4,0,127,19,0,0,0,127,20,0,0,0,127,21,1,0,0,127,11,0,0;            45P     24
508,4,0,127,21,0,0,0,127,22,0,0,0,127,23,0,0,0,127,12,0,0;            47P     25
508,1,0,127,4,1,0;                                                    49P     26
508,4,0,127,23,1,0,0,127,24,0,0,0,127,13,1,0,0,127,7,0,0;             51P     27
508,6,0,127,24,1,0,0,127,22,1,0,0,127,20,1,0,0,127,18,1,0,0,127,      53P     28
16,1,0,0,127,14,1,0;                                                  53P     29
126,8,2,0,1,0,0,-3.14159265358979,-3.14159265358979,                  55P     30
-3.14159265358979,-1.5707963267949,-1.5707963267949,0.,0.,            55P     31
1.5707963267949,1.5707963267949,3.14159265358979,                     55P     32
3.14159265358979,3.14159265358979,1.,0.707106781186547,1.,            55P     33
0.707106781186547,1.,0.707106781186547,1.,0.707106781186547,1.,       55P     34
-0.055,-6.73555739531044D-18,-0.5,-0.055,-0.055,-0.5,                 55P     35
3.36777869765522D-18,-0.055,-0.5,0.055,-0.055,-0.5,0.055,0.,          55P     36
-0.5,0.055,0.055,-0.5,3.36777869765522D-18,0.055,-0.5,-0.055,         55P     37
0.055,-0.5,-0.055,6.73555739531044D-18,-0.5,-3.14159265358979,        55P     38
3.14159265358979,0.,0.,0.;                                            55P     39
126,1,1,0,0,1,0,0.,0.,13.6363636363636,13.6363636363636,1.,1.,        57P     40
-0.055,0.,-0.5,-0.055,0.,0.25,0.,13.6363636363636,0.,0.,0.;           57P     41
126,8,2,0,1,0,0,-3.14159265358979,-3.14159265358979,                  59P     42
-3.14159265358979,-1.5707963267949,-1.5707963267949,0.,0.,            59P     43
1.5707963267949,1.5707963267949,3.14159265358979,                     59P     44
3.14159265358979,3.14159265358979,1.,0.707106781186547,1.,            59P     45
0.707106781186547,1.,0.707106781186547,1.,0.707106781186547,1.,       59P     46
-0.055,-6.73555739531044D-18,0.25,-0.055,-0.055,0.25,                 59P     47
3.36777869765522D-18,-0.055,0.25,0.055,-0.055,0.25,0.055,0.,          59P     48
0.25,0.055,0.055,0.25,3.36777869765522D-18,0.055,0.25,-0.055,         59P     49
0.055,0.25,-0.055,6.73555739531044D-18,0.25,-3.14159265358979,        59P     50
3.14159265358979,0.,0.,0.;                                            59P     51
126,8,2,0,1,0,0,-3.14159265358979,-3.14159265358979,                  61P     52
-3.14159265358979,-1.5707963267949,-1.5707963267949,0.,0.,            61P     53
1.5707963267949,1.5707963267949,3.14159265358979,                     61P     54
3.14159265358979,3.14159265358979,1.,0.707106781186549,1.,            61P     55
0.707106781186549,1.,0.707106781186549,1.,0.707106781186549,1.,       61P     56
0.115,-4.89858719658941D-18,0.339722102328874,0.115,-0.04,            61P     57
0.339722102328874,0.115,-0.04,0.379722102328874,0.115,-0.04,          61P     58
0.419722102328874,0.115,0.,0.419722102328874,0.115,0.04,              61P     59
0.419722102328874,0.115,0.04,0.379722102328874,0.115,0.04,            61P     60
0.339722102328874,0.115,4.89858719658941D-18,0.339722102328874,       61P     61
-3.14159265358979,3.14159265358979,0.,0.,0.;                          61P     62
126,1,1,0,0,1,0,0.,0.,5.75,5.75,1.,1.,0.115,0.,                       63P     63
0.339722102328874,-0.115,0.,0.339722102328874,0.,5.75,0.,0.,0.;       63P     64
126,8,2,0,1,0,0,-3.14159265358979,-3.14159265358979,                  65P     65
-3.14159265358979,-1.5707963267949,-1.5707963267949,0.,0.,            65P     66
1.5707963267949,1.5707963267949,3.14159265358979,                     65P     67
3.14159265358979,3.14159265358979,1.,0.707106781186549,1.,            65P     68
0.707106781186549,1.,0.707106781186549,1.,0.707106781186549,1.,       65P     69
-0.115,4.89858719658941D-18,0.339722102328874,-0.115,0.04,            65P     70
0.339722102328874,-0.115,0.04,0.379722102328874,-0.115,0.04,          65P     71
0.419722102328874,-0.115,0.,0.419722102328874,-0.115,-0.04,           65P     72
0.419722102328874,-0.115,-0.04,0.379722102328874,-0.115,-0.04,        65P     73
0.339722102328874,-0.115,-4.89858719658941D-18,                       65P     74
0.339722102328874,-3.14159265358979,3.14159265358979,0.,0.,0.;        65P     75
126,1,1,0,0,1,0,0.,0.,0.337288027260579,0.337288027260579,1.,1.,      67P     76
0.115,-0.0663952809568069,-0.5,8.74191357972564D-17,                  67P     77
-0.132790561913614,-0.5,0.,0.337288027260579,0.,0.,0.;                67P     78
126,1,1,0,0,1,0,0.,0.,0.337288027260579,0.337288027260579,1.,1.,      69P     79
1.00514722950753D-16,-0.132790561913614,-0.5,-0.115,                  69P     80
-0.066395280956807,-0.5,0.,0.337288027260579,0.,0.,0.;                69P     81
126,1,1,0,0,1,0,0.,0.,0.337288027260579,0.337288027260579,1.,1.,      71P     82
-0.115,-0.066395280956807,-0.5,-0.115,0.0663952809568069,-0.5,        71P     83
0.,0.337288027260579,0.,0.,0.;                                        71P     84
126,1,1,0,0,1,0,0.,0.,0.33728802726058,0.33728802726058,1.,1.,        73P     85
-0.115,0.0663952809568069,-0.5,8.74191357972564D-17,                  73P     86
0.132790561913614,-0.5,0.,0.33728802726058,0.,0.,0.;                  73P     87
126,1,1,0,0,1,0,0.,0.,0.337288027260579,0.337288027260579,1.,1.,      75P     88
8.81773748919016D-17,0.132790561913614,-0.5,0.115,                    75P     89
0.066395280956807,-0.5,0.,0.337288027260579,0.,0.,0.;                 75P     90
126,1,1,0,0,1,0,0.,0.,0.337288027260579,0.337288027260579,1.,1.,      77P     91
0.115,0.066395280956807,-0.5,0.115,-0.0663952809568069,-0.5,0.,       77P     92
0.337288027260579,0.,0.,0.;                                           77P     93
126,1,1,0,0,1,0,-1.27,-1.27,1.27,1.27,1.,1.,                          79P     94
1.00514722950753D-16,-0.132790561913614,0.5,                          79P     95
1.00514722950753D-16,-0.132790561913614,-0.5,-1.27,1.27,0.,0.,        79P     96
0.;                                                                   79P     97
126,1,1,0,0,1,0,-0.337288027260579,-0.337288027260579,0.,0.,1.,       81P     98
1.,-0.115,-0.066395280956807,0.5,1.00514722950753D-16,                81P     99
-0.132790561913614,0.5,-0.337288027260579,0.,0.,0.,0.;                81P    100
126,1,1,0,0,1,0,-1.27,-1.27,1.27,1.27,1.,1.,-0.115,                   83P    101
-0.066395280956807,0.5,-0.115,-0.066395280956807,-0.5,-1.27,          83P    102
1.27,0.,0.,0.;                                                        83P    103
126,1,1,0,0,1,0,-0.337288027260579,-0.337288027260579,0.,0.,1.,       85P    104
1.,-0.115,0.0663952809568069,0.5,-0.115,-0.066395280956807,0.5,       85P    105
-0.337288027260579,0.,0.,0.,0.;                                       85P    106
126,1,1,0,0,1,0,-1.27,-1.27,1.27,1.27,1.,1.,-0.115,                   87P    107
0.0663952809568069,0.5,-0.115,0.0663952809568069,-0.5,-1.27,          87P    108
1.27,0.,0.,0.;                                                        87P    109
126,1,1,0,0,1,0,-0.33728802726058,-0.33728802726058,0.,0.,1.,1.,      89P    110
8.74191357972564D-17,0.132790561913614,0.5,-0.115,                    89P    111
0.0663952809568069,0.5,-0.33728802726058,0.,0.,0.,0.;                 89P    112
126,1,1,0,0,1,0,-1.27,-1.27,1.27,1.27,1.,1.,                          91P    113
8.81773748919016D-17,0.132790561913614,0.5,8.81773748919016D-17,      91P    114
0.132790561913614,-0.5,-1.27,1.27,0.,0.,0.;                           91P    115
126,1,1,0,0,1,0,-0.337288027260579,-0.337288027260579,0.,0.,1.,       93P    116
1.,0.115,0.066395280956807,0.5,8.81773748919016D-17,                  93P    117
0.132790561913614,0.5,-0.337288027260579,0.,0.,0.,0.;                 93P    118
126,1,1,0,0,1,0,-1.27,-1.27,1.27,1.27,1.,1.,0.115,                    95P    119
0.066395280956807,0.5,0.115,0.066395280956807,-0.5,-1.27,1.27,        95P    120
0.,0.,0.;                                                             95P    121
126,1,1,0,0,1,0,-0.337288027260579,-0.337288027260579,0.,0.,1.,       97P    122
1.,0.115,-0.0663952809568069,0.5,0.115,0.066395280956807,0.5,         97P    123
-0.337288027260579,0.,0.,0.,0.;                                       97P    124
126,1,1,0,0,1,0,-1.27,-1.27,1.27,1.27,1.,1.,0.115,                    99P    125
-0.0663952809568069,-0.5,0.115,-0.0663952809568069,0.5,-1.27,         99P    126
1.27,0.,0.,0.;                                                        99P    127
126,1,1,0,0,1,0,-0.337288027260579,-0.337288027260579,0.,0.,1.,      101P    128
1.,8.74191357972564D-17,-0.132790561913614,0.5,0.115,                101P    129
-0.0663952809568069,0.5,-0.337288027260579,0.,0.,0.,0.;              101P    130
128,1,8,1,2,0,1,0,0,0,0.,0.,13.6363636363636,13.6363636363636,       103P    131
-3.14159265358979,-3.14159265358979,-3.14159265358979,               103P    132
-1.5707963267949,-1.5707963267949,0.,0.,1.5707963267949,             103P    133
1.5707963267949,3.14159265358979,3.14159265358979,                   103P    134
3.14159265358979,1.,1.,0.707106781186548,0.707106781186548,1.,       103P    135
1.,0.707106781186548,0.707106781186548,1.,1.,0.707106781186548,      103P    136
0.707106781186548,1.,1.,0.707106781186548,0.707106781186548,1.,      103P    137
1.,-0.055,0.,-0.5,-0.055,0.,0.25,-0.055,-0.055,-0.5,-0.055,          103P    138
-0.055,0.25,0.,-0.055,-0.5,0.,-0.055,0.25,0.055,-0.055,-0.5,         103P    139
0.055,-0.055,0.25,0.055,0.,-0.5,0.055,0.,0.25,0.055,0.055,-0.5,      103P    140
0.055,0.055,0.25,0.,0.055,-0.5,0.,0.055,0.25,-0.055,0.055,-0.5,      103P    141
-0.055,0.055,0.25,-0.055,0.,-0.5,-0.055,0.,0.25,0.,                  103P    142
13.6363636363636,-3.14159265358979,3.14159265358979;                 103P    143
128,1,1,1,1,0,0,1,0,0,-0.1397,-0.1397,0.1397,0.1397,-0.1397,         105P    144
-0.1397,0.1397,0.1397,1.,1.,1.,1.,0.055,-0.055,0.25,-0.055,          105P    145
-0.055,0.25,0.055,0.055,0.25,-0.055,0.055,0.25,-0.1397,0.1397,       105P    146
-0.1397,0.1397;                                                      105P    147
128,1,8,1,2,0,1,0,0,0,0.,0.,5.75,5.75,-3.14159265358979,             107P    148
-3.14159265358979,-3.14159265358979,-1.5707963267949,                107P    149
-1.5707963267949,0.,0.,1.5707963267949,1.5707963267949,              107P    150
3.14159265358979,3.14159265358979,3.14159265358979,1.,1.,            107P    151
0.707106781186548,0.707106781186548,1.,1.,0.707106781186548,         107P    152
0.707106781186548,1.,1.,0.707106781186548,0.707106781186548,1.,      107P    153
1.,0.707106781186548,0.707106781186548,1.,1.,0.115,0.,               107P    154
0.339722102328874,-0.115,0.,0.339722102328874,0.115,-0.04,           107P    155
0.339722102328874,-0.115,-0.04,0.339722102328874,0.115,-0.04,        107P    156
0.379722102328874,-0.115,-0.04,0.379722102328874,0.115,-0.04,        107P    157
0.419722102328874,-0.115,-0.04,0.419722102328874,0.115,0.,           107P    158
0.419722102328874,-0.115,0.,0.419722102328874,0.115,0.04,            107P    159
0.419722102328874,-0.115,0.04,0.419722102328874,0.115,0.04,          107P    160
0.379722102328874,-0.115,0.04,0.379722102328874,0.115,0.04,          107P    161
0.339722102328874,-0.115,0.04,0.339722102328874,0.115,0.,            107P    162
0.339722102328874,-0.115,0.,0.339722102328874,0.,5.75,               107P    163
-3.14159265358979,3.14159265358979;                                  107P    164
128,1,1,1,1,0,0,1,0,0,-0.2921,-0.2921,0.2921,0.2921,                 109P    165
-0.337288027260579,-0.337288027260579,0.337288027260579,             109P    166
0.337288027260579,1.,1.,1.,1.,0.115,-0.132790561913614,-0.5,         109P    167
-0.115,-0.132790561913614,-0.5,0.115,0.132790561913614,-0.5,         109P    168
-0.115,0.132790561913614,-0.5,-0.2921,0.2921,-0.337288027260579,     109P    169
0.337288027260579;                                                   109P    170
128,1,1,1,1,0,0,1,0,0,0.,0.,0.337288027260579,0.337288027260579,     111P    171
-1.27,-1.27,1.27,1.27,1.,1.,1.,1.,-0.115,-0.066395280956807,         111P    172
-0.5,1.09273919746571D-16,-0.132790561913614,-0.5,-0.115,            111P    173
-0.066395280956807,0.5,1.09273919746571D-16,-0.132790561913614,      111P    174
0.5,0.,0.337288027260579,-1.27,1.27;                                 111P    175
128,1,1,1,1,0,0,1,0,0,0.,0.,0.337288027260579,0.337288027260579,     113P    176
-1.27,-1.27,1.27,1.27,1.,1.,1.,1.,-0.115,0.0663952809568069,         113P    177
-0.5,-0.115,-0.066395280956807,-0.5,-0.115,0.0663952809568069,       113P    178
0.5,-0.115,-0.066395280956807,0.5,0.,0.337288027260579,-1.27,        113P    179
1.27;                                                                113P    180
128,1,1,1,1,0,0,1,0,0,-1.25092647599048D-18,                         115P    181
-1.25092647599048D-18,0.33728802726058,0.33728802726058,-1.27,       115P    182
-1.27,1.27,1.27,1.,1.,1.,1.,8.78456452879943D-17,                    115P    183
0.132790561913614,-0.5,-0.115,0.0663952809568069,-0.5,               115P    184
8.78456452879943D-17,0.132790561913614,0.5,-0.115,                   115P    185
0.0663952809568069,0.5,-1.25092647599048D-18,0.33728802726058,       115P    186
-1.27,1.27;                                                          115P    187
128,1,1,1,1,0,0,1,0,0,0.,0.,0.337288027260579,0.337288027260579,     117P    188
-1.27,-1.27,1.27,1.27,1.,1.,1.,1.,0.115,0.066395280956807,-0.5,      117P    189
6.55643518479423D-17,0.132790561913614,-0.5,0.115,                   117P    190
0.066395280956807,0.5,6.55643518479423D-17,0.132790561913614,        117P    191
0.5,0.,0.337288027260579,-1.27,1.27;                                 117P    192
128,1,1,1,1,0,0,1,0,0,0.,0.,0.337288027260579,0.337288027260579,     119P    193
-1.27,-1.27,1.27,1.27,1.,1.,1.,1.,0.115,-0.0663952809568069,         119P    194
-0.5,0.115,0.066395280956807,-0.5,0.115,-0.0663952809568069,0.5,     119P    195
0.115,0.066395280956807,0.5,0.,0.337288027260579,-1.27,1.27;         119P    196
128,1,1,1,1,0,0,1,0,0,0.,0.,0.337288027260579,0.337288027260579,     121P    197
-1.27,-1.27,1.27,1.27,1.,1.,1.,1.,8.74191357972564D-17,              121P    198
-0.132790561913614,-0.5,0.115,-0.0663952809568069,-0.5,              121P    199
8.74191357972564D-17,-0.132790561913614,0.5,0.115,                   121P    200
-0.0663952809568069,0.5,0.,0.337288027260579,-1.27,1.27;             121P    201
128,1,1,1,1,0,0,1,0,0,-0.2921,-0.2921,0.2921,0.2921,                 123P    202
-0.337288027260579,-0.337288027260579,0.337288027260579,             123P    203
0.337288027260579,1.,1.,1.,1.,-0.115,-0.132790561913614,0.5,         123P    204
0.115,-0.132790561913614,0.5,-0.115,0.132790561913614,0.5,0.115,     123P    205
0.132790561913614,0.5,-0.2921,0.2921,-0.337288027260579,             123P    206
0.337288027260579;                                                   123P    207
502,16,-0.055,6.73555739531044D-18,-0.5,-0.055,                      125P    208
6.73555739531044D-18,0.25,0.115,4.89858719658941D-18,                125P    209
0.339722102328874,-0.115,4.89858719658941D-18,0.339722102328874,     125P    210
0.115,-0.0663952809568069,-0.5,1.09273919746571D-16,                 125P    211
-0.132790561913614,-0.5,-0.115,-0.066395280956807,-0.5,-0.115,       125P    212
0.0663952809568069,-0.5,8.74191357972564D-17,0.132790561913614,      125P    213
-0.5,0.115,0.066395280956807,-0.5,1.09273919746571D-16,              125P    214
-0.132790561913614,0.5,-0.115,-0.066395280956807,0.5,-0.115,         125P    215
0.0663952809568069,0.5,8.74191357972564D-17,0.132790561913614,       125P    216
0.5,0.115,0.066395280956807,0.5,0.115,-0.0663952809568069,0.5;       125P    217
504,24,55,125,1,125,1,57,125,1,125,2,59,125,2,125,2,61,125,3,        127P    218
125,3,63,125,3,125,4,65,125,4,125,4,67,125,5,125,6,69,125,6,125,     127P    219
7,71,125,7,125,8,73,125,8,125,9,75,125,9,125,10,77,125,10,125,5,     127P    220
79,125,11,125,6,81,125,12,125,11,83,125,12,125,7,85,125,13,125,      127P    221
12,87,125,13,125,8,89,125,14,125,13,91,125,14,125,9,93,125,15,       127P    222
125,14,95,125,15,125,10,97,125,16,125,15,99,125,5,125,16,101,        127P    223
125,11,125,16;                                                       127P    224
406,1,6HSolid1;                                                      129P    225
314,74.9019607843137,74.9019607843137,74.9019607843137,;             131P    226
S      1G      3D    132P    226                                        T      1
